<?xml version="1.0" encoding="utf-8"?>
<!-- Generator: Adobe Illustrator 24.1.3, SVG Export Plug-In . SVG Version: 6.00 Build 0)  -->
<svg version="1.1" id="Layer_1" xmlns="http://www.w3.org/2000/svg" xmlns:xlink="http://www.w3.org/1999/xlink" x="0px" y="0px"
	 viewBox="0 0 400 400" style="enable-background:new 0 0 400 400;" xml:space="preserve">
<style type="text/css">
	.st0{fill:url(#SVGID_1_);}
	.st1{fill:url(#SVGID_2_);}
	.st2{fill:url(#SVGID_3_);}
	.st3{fill:url(#SVGID_4_);}
	.st4{fill:url(#SVGID_5_);}
	.st5{fill:url(#SVGID_6_);}
	.st6{fill:url(#SVGID_7_);}
	.st7{fill:url(#SVGID_8_);}
	.st8{fill:url(#SVGID_9_);}
</style>
<g>
	<linearGradient id="SVGID_1_" gradientUnits="userSpaceOnUse" x1="12.5257" y1="195.4226" x2="288.7844" y2="195.4226">
		<stop  offset="0" style="stop-color:#FD2708"/>
		<stop  offset="0.4953" style="stop-color:#EC06A3"/>
		<stop  offset="1" style="stop-color:#8B04EF"/>
	</linearGradient>
	<path class="st0" d="M74.25,59.41c2.2-7.63,2.2-16.23,6.47-20c4.16-3.68,12.69-2.43,20.36-3.49c0-2.89-0.16-6.09,0.03-9.27
		c0.68-11.77,9.41-21.39,21.16-21.74c18.65-0.55,37.34-0.51,55.99-0.06c11.69,0.28,20.16,8.87,21.58,20.51
		c0.43,3.48,0.46,7.01,0.68,10.49c7.04,1.07,15.52,0.02,20.13,3.75c4.16,3.37,4.08,11.98,6.31,19.81c9.41,0,20.43,0.51,31.39-0.1
		c25.02-1.41,30.84,6.49,30.41,30.12c-0.74,40.59-0.18,81.2-0.21,121.81c0,3.52,0.05,7.12-0.63,10.54c-0.3,1.51-2.74,3.94-3.59,3.71
		c-1.76-0.48-3.77-2.21-4.45-3.91c-0.79-1.97-0.3-4.47-0.3-6.74c-0.01-43.9,0.01-87.8-0.01-131.69c0-12-2.71-14.71-14.58-14.73
		c-13.06-0.02-26.12,0-39.69,0c-0.17,3.13-0.4,5.57-0.42,8c-0.13,12.09-2.44,14.41-14.79,14.42c-31.54,0.02-63.07,0-94.61,0
		c-8.83,0-17.66,0.07-26.49-0.02c-9.8-0.1-12.44-2.81-12.58-12.68c-0.04-2.96-0.01-5.91-0.01-9.61c-16,0-31.08-0.38-46.13,0.17
		c-6.86,0.25-8.62,5.75-8.6,12.01c0.08,32.04,0.03,64.08,0.03,96.12c0,61.73-0.01,123.46,0,185.19c0,12.65,2.42,15.09,14.98,15.09
		c63.83,0.02,127.65-0.03,191.48,0.11c3.79,0.01,10.06-2.23,10.17,4.28c0.11,6.49-6.09,4.61-9.98,4.61
		c-64.08,0.1-128.16,0.08-192.24,0.07c-16.86,0-23.49-6.51-23.51-23.25c-0.06-44.4-0.07-88.8-0.07-133.21
		c0-48.89,0.02-97.78,0.07-146.66c0.02-17.51,6.19-23.64,23.67-23.65C49.31,59.4,62.35,59.41,74.25,59.41z M85.83,81.2
		c43.26,0,86.23,0,129.38,0c0-11.95,0-23.36,0-34.76c-43.43,0-86.2,0-129.38,0C85.83,58.17,85.83,69.42,85.83,81.2z M110.54,36.57
		c26.85,0,53.2,0,79.48,0c3.11-16.17-2.25-22.84-18.01-22.87c-13.87-0.03-27.74-0.02-41.61-0.01
		C113.51,13.69,108.84,18.87,110.54,36.57z"/>
	<linearGradient id="SVGID_2_" gradientUnits="userSpaceOnUse" x1="46.0826" y1="176.4791" x2="212.7302" y2="176.4791">
		<stop  offset="0" style="stop-color:#FD2708"/>
		<stop  offset="0.4953" style="stop-color:#EC06A3"/>
		<stop  offset="1" style="stop-color:#8B04EF"/>
	</linearGradient>
	<path class="st1" d="M46.08,124.08c0.3-13.39,4.63-20.4,13.26-24.25c8.95-3.99,17.42-2.36,24.56,4.2
		c15.98,14.67,31.75,29.57,47.61,44.37c11.96,11.16,24.23,22.02,35.76,33.6c6.68,6.7,12.82,14.15,18.05,22.03
		c9.33,14.03,17.91,28.57,26.47,43.1c1.26,2.13,0.67,5.35,0.93,8.06c-2.55-0.13-5.5,0.54-7.57-0.51
		c-17.98-9.13-36.06-18.12-53.54-28.15c-7.28-4.18-13.41-10.53-19.66-16.32c-25.86-23.97-51.74-47.92-77.16-72.35
		C50.24,133.47,47.8,126.88,46.08,124.08z M168.02,194.95c-22.67-21.16-44.87-41.88-67.32-62.83c-6.36,6.85-12.1,13.03-18.14,19.53
		c22.67,21.18,44.69,41.75,67.14,62.71C155.98,207.71,161.78,201.56,168.02,194.95z M94.63,125.29c-2.46-1.87-4.54-3.26-6.4-4.9
		c-3.96-3.49-7.6-7.37-11.73-10.62c-5.73-4.5-12.93-3.76-17.72,1.35c-4.69,5.01-5.1,12.55-0.2,17.79
		c5.29,5.65,11.19,10.72,17.28,16.46C82.08,138.72,87.85,132.55,94.63,125.29z M157.2,219.67c13.27,6.81,25.11,12.89,36.95,18.97
		c0.38-0.44,0.75-0.88,1.13-1.32c-7.13-11.52-14.26-23.05-21.83-35.28C167.72,208.27,162.77,213.63,157.2,219.67z"/>
	<linearGradient id="SVGID_3_" gradientUnits="userSpaceOnUse" x1="249.2805" y1="345.2484" x2="383.1159" y2="345.2484">
		<stop  offset="0" style="stop-color:#FD2708"/>
		<stop  offset="0.4953" style="stop-color:#EC06A3"/>
		<stop  offset="1" style="stop-color:#8B04EF"/>
	</linearGradient>
	<path class="st2" d="M315.16,391.5c-14.65-2.19-29.44-3.74-43.92-6.75c-14.52-3.02-20.96-11.97-21.83-26.87
		c-1.39-23.8,8.81-41.81,27.44-55.72c4.98-3.72,9.76-4.13,15.29-0.61c15.94,10.13,32.13,10.83,48.09-0.07
		c5.09-3.48,9.8-3.23,14.64,0.25c18.91,13.62,29.16,31.65,28.18,55.37c-0.64,15.42-7.83,24.37-22.76,27.81
		c-7.6,1.75-15.31,3.19-23.04,4.12c-7.24,0.88-14.58,0.91-21.88,1.31C315.3,390.74,315.23,391.12,315.16,391.5z M284.8,308.13
		c-18.88,12.04-28.16,30-26.32,50.49c0.84,9.36,4.71,14.8,13.41,17.09c29.38,7.7,58.87,7.26,88.24-0.06
		c7.31-1.82,12.63-6.53,13.55-14.55c2.46-21.53-5.83-38.37-23.02-51.03c-1.36-1-4.44-1.27-5.8-0.41
		C324.58,322.42,304.78,320.38,284.8,308.13z"/>
	<linearGradient id="SVGID_4_" gradientUnits="userSpaceOnUse" x1="183.0073" y1="139.8937" x2="258.3705" y2="139.8937">
		<stop  offset="0" style="stop-color:#FD2708"/>
		<stop  offset="0.4953" style="stop-color:#EC06A3"/>
		<stop  offset="1" style="stop-color:#8B04EF"/>
	</linearGradient>
	<path class="st3" d="M249.24,168c0-6.39-0.36-12.4,0.19-18.33c0.2-2.15,2.6-4.1,3.99-6.14c1.59,2.12,4.3,4.12,4.56,6.39
		c0.66,5.72,0.29,11.57,0.18,17.36c-0.11,6.31-3.35,10.07-9.72,10.12c-18.62,0.16-37.24,0.18-55.86,0c-5.96-0.06-9.41-3.66-9.46-9.6
		c-0.16-18.65-0.17-37.29,0.01-55.94c0.06-5.98,3.75-9.41,9.63-9.47c18.64-0.19,37.3-0.27,55.93,0.13c2.75,0.06,6.15,2.38,7.91,4.68
		c1.23,1.6,0.17,4.95,0.13,7.51c-2.37-0.43-4.79-0.7-7.1-1.34c-1.33-0.37-2.48-1.93-3.72-1.94c-17.58-0.13-35.17-0.09-53.32-0.09
		c0,19.2,0,37.66,0,56.64C211.19,168,229.48,168,249.24,168z"/>
	<linearGradient id="SVGID_5_" gradientUnits="userSpaceOnUse" x1="277.0782" y1="264.7176" x2="355.4696" y2="264.7176">
		<stop  offset="0" style="stop-color:#FD2708"/>
		<stop  offset="0.4953" style="stop-color:#EC06A3"/>
		<stop  offset="1" style="stop-color:#8B04EF"/>
	</linearGradient>
	<path class="st4" d="M316.29,303.82c-21.89-0.03-39.5-17.79-39.21-39.53c0.29-21.5,17.76-38.68,39.34-38.67
		c21.93,0.01,39.25,17.55,39.04,39.56C355.27,286.82,338,303.85,316.29,303.82z M316.46,234.73c-16.74-0.07-30.31,13.42-30.29,30.11
		c0.03,16.32,13.33,29.71,29.72,29.91c16.85,0.2,30.42-13,30.57-29.73C346.61,248.25,333.28,234.8,316.46,234.73z"/>
	<linearGradient id="SVGID_6_" gradientUnits="userSpaceOnUse" x1="49.9092" y1="292.5679" x2="242.0063" y2="292.5679">
		<stop  offset="0" style="stop-color:#FD2708"/>
		<stop  offset="0.4953" style="stop-color:#EC06A3"/>
		<stop  offset="1" style="stop-color:#8B04EF"/>
	</linearGradient>
	<path class="st5" d="M145.66,288.13c28.24,0,56.49,0,84.73,0c1.77,0,3.78-0.54,5.24,0.13c2.32,1.08,4.27,2.97,6.38,4.51
		c-2.23,1.44-4.42,2.96-6.72,4.28c-0.57,0.33-1.48,0.05-2.24,0.05c-58.25,0-116.5,0-174.76-0.02c-1.76,0-3.83,0.41-5.2-0.36
		c-1.49-0.84-3.22-2.86-3.18-4.32c0.04-1.4,1.99-3.4,3.52-3.94c2.03-0.72,4.48-0.34,6.74-0.34
		C88.67,288.12,117.16,288.13,145.66,288.13z"/>
	<linearGradient id="SVGID_7_" gradientUnits="userSpaceOnUse" x1="49.8957" y1="335.1642" x2="242.0001" y2="335.1642">
		<stop  offset="0" style="stop-color:#FD2708"/>
		<stop  offset="0.4953" style="stop-color:#EC06A3"/>
		<stop  offset="1" style="stop-color:#8B04EF"/>
	</linearGradient>
	<path class="st6" d="M145.66,330.66c28.5,0,56.99,0,85.49,0c1.77,0,3.81-0.55,5.23,0.15c2.1,1.04,3.77,2.97,5.62,4.52
		c-1.73,1.42-3.28,3.23-5.25,4.13c-1.47,0.67-3.47,0.17-5.24,0.17c-57.24,0-114.49,0.04-171.73-0.08c-3.81-0.01-9.97,2.11-9.88-4.62
		c0.08-6.07,5.87-4.19,9.52-4.21C88.16,330.6,116.91,330.66,145.66,330.66z"/>
	<linearGradient id="SVGID_8_" gradientUnits="userSpaceOnUse" x1="49.6584" y1="250.1011" x2="143.3388" y2="250.1011">
		<stop  offset="0" style="stop-color:#FD2708"/>
		<stop  offset="0.4953" style="stop-color:#EC06A3"/>
		<stop  offset="1" style="stop-color:#8B04EF"/>
	</linearGradient>
	<path class="st7" d="M97.09,254.58c-13.36,0-26.73,0.23-40.08-0.2c-2.49-0.08-4.9-2.81-7.35-4.32c2.42-1.49,4.83-4.25,7.27-4.28
		c26.47-0.31,52.95-0.29,79.42-0.01c2.34,0.02,4.66,2.5,6.99,3.83c-2.3,1.66-4.56,4.66-6.92,4.75
		C123.32,254.82,110.2,254.58,97.09,254.58z"/>
	<linearGradient id="SVGID_9_" gradientUnits="userSpaceOnUse" x1="200.8755" y1="138.0636" x2="268.4258" y2="138.0636">
		<stop  offset="0" style="stop-color:#FD2708"/>
		<stop  offset="0.4953" style="stop-color:#EC06A3"/>
		<stop  offset="1" style="stop-color:#8B04EF"/>
	</linearGradient>
	<path class="st8" d="M223.44,148.88c11.38-9.76,22.21-19.05,33.05-28.35c1.53-1.31,2.89-3.2,4.65-3.74
		c2.25-0.68,4.84-0.26,7.28-0.32c-0.56,2.42-0.33,5.69-1.83,7.11c-6.94,6.55-14.36,12.59-21.61,18.81
		c-4.77,4.09-9.54,8.18-14.31,12.27c-8.1,6.95-8.11,6.96-15.47-1.27c-4.53-5.06-9.3-9.92-13.4-15.31c-1.27-1.67-0.67-4.76-0.93-7.19
		c2.57,0.47,5.96,0.06,7.55,1.56C213.52,137.25,217.95,142.76,223.44,148.88z"/>
</g>
</svg>
