<?xml version="1.0" encoding="utf-8"?>
<!-- Generator: Adobe Illustrator 24.1.3, SVG Export Plug-In . SVG Version: 6.00 Build 0)  -->
<svg version="1.1" id="Layer_1" xmlns="http://www.w3.org/2000/svg" xmlns:xlink="http://www.w3.org/1999/xlink" x="0px" y="0px"
	 viewBox="0 0 400 400" style="enable-background:new 0 0 400 400;" xml:space="preserve">
<style type="text/css">
	.st0{fill:url(#SVGID_1_);}
	.st1{fill:url(#SVGID_2_);}
	.st2{fill:url(#SVGID_3_);}
	.st3{fill:url(#SVGID_4_);}
	.st4{fill:url(#SVGID_5_);}
	.st5{fill:url(#SVGID_6_);}
	.st6{fill:url(#SVGID_7_);}
</style>
<g>
	<linearGradient id="SVGID_1_" gradientUnits="userSpaceOnUse" x1="26.0871" y1="200.2134" x2="385.7208" y2="200.2134">
		<stop  offset="0" style="stop-color:#FD2708"/>
		<stop  offset="0.4953" style="stop-color:#EC06A3"/>
		<stop  offset="1" style="stop-color:#8B04EF"/>
	</linearGradient>
	<path class="st0" d="M293.73,176.05c0,2.01,0,3.62,0,5.22c0,44.57-0.06,89.14,0.1,133.72c0.02,4.94-1.29,8.69-4.79,12.15
		c-19.98,19.77-39.8,39.71-59.83,59.43c-1.4,1.38-4.05,2.1-6.12,2.11c-31.78,0.15-63.56,0.14-95.35,0.14
		c-24.82,0-49.65-0.51-74.45,0.1c-20.96,0.51-27.14-12.57-27.19-27.35c-0.09-27.73,0.05-55.46,0.05-83.19
		c0.01-69.9,0-139.79,0.02-209.69c0-3.29,0-6.6,0.41-9.85c1.29-10.28,9.8-19.07,20.16-19.6c12.76-0.66,25.56-0.41,38.35-0.42
		c51.41-0.03,102.82,0.02,154.23-0.09c1.76,0,3.93-0.95,5.2-2.18c23.48-22.77,51.22-30.59,82.4-21.07
		c31.23,9.53,50.65,31.44,57.2,63.48c9.49,46.4-24.55,92.07-71.73,97.02C306.42,176.59,300.33,176.05,293.73,176.05z M281.85,173.18
		c-1.03-0.36-1.96-0.73-2.91-1.01c-11.87-3.48-22.19-9.62-31.48-17.74c-1.69-1.48-4.4-2.51-6.66-2.54
		c-18.49-0.19-36.97-0.1-55.46-0.1c-13.55,0-27.1,0.03-40.65-0.04c-4.77-0.02-7.3-3.01-6.26-7.24c0.9-3.68,3.71-4.3,7.04-4.3
		c28.36,0.04,56.73,0.03,85.09,0.02c1.43,0,2.85,0,4.95,0c-7.51-11.63-11.73-23.57-13.66-36.48c-1.33-0.06-2.45-0.15-3.56-0.15
		c-10-0.01-20.01-0.01-30.01-0.01c-14.31,0-28.62,0.02-42.93-0.03c-5.28-0.02-8.07-3.04-6.92-7.47c1.01-3.89,4.12-4.3,7.48-4.3
		c23.43,0.02,46.85,0,70.28,0c1.37,0,2.75,0,4.5,0c0.76-14.72,4.33-28.37,12.42-41.3c-2.03,0-3.26,0-4.49,0
		c-59.01,0-118.02,0-177.02,0c-9.24,0-13.69,4.47-13.69,13.75c0,96.87-0.01,193.74,0.02,290.61c0,3.54,0.02,7.11,0.45,10.61
		c1.13,9.16,4.13,11.73,13.42,11.73c54.07,0.02,108.14,0.02,162.21,0.02c1.34,0,2.68-0.12,4.31-0.2c0-1.93,0-3.44,0-4.95
		c0-16.97-0.01-33.94,0.01-50.9c0.01-6.01,1.69-7.66,7.69-7.66c17.09-0.01,34.19,0,51.28,0c1.47,0,2.94,0,4.55,0
		C281.85,266.42,281.85,219.86,281.85,173.18z M303.25,164.96c38.88-0.07,70.7-31.97,70.69-70.87
		c-0.01-38.78-32.06-70.82-70.82-70.8c-38.75,0.02-70.71,32.09-70.69,70.93C232.46,133.07,264.46,165.03,303.25,164.96z
		 M230.31,367.08c13.59-13.78,27.39-27.77,40.61-41.18c-12.69,0-26.54,0-40.61,0C230.31,339.98,230.31,353.84,230.31,367.08z"/>
	<linearGradient id="SVGID_2_" gradientUnits="userSpaceOnUse" x1="59.8869" y1="118.2797" x2="125.67" y2="118.2797">
		<stop  offset="0" style="stop-color:#FD2708"/>
		<stop  offset="0.4953" style="stop-color:#EC06A3"/>
		<stop  offset="1" style="stop-color:#8B04EF"/>
	</linearGradient>
	<path class="st1" d="M59.89,118.28c0-11.52-0.02-23.04,0.01-34.56c0.02-5.49,1.76-7.2,7.32-7.21c17.09-0.02,34.18-0.02,51.27,0
		c5.3,0.01,7.14,1.77,7.15,7.03c0.04,23.17,0.05,46.33,0,69.5c-0.01,5.38-1.69,6.98-7.09,6.99c-17.09,0.03-34.18,0.04-51.27,0.01
		c-5.62-0.01-7.37-1.85-7.38-7.58C59.88,141.07,59.89,129.67,59.89,118.28z M113.88,88.59c-14.29,0-28.24,0-42.1,0
		c0,20.14,0,39.92,0,59.67c14.21,0,28.07,0,42.1,0C113.88,128.28,113.88,108.57,113.88,88.59z"/>
	<linearGradient id="SVGID_3_" gradientUnits="userSpaceOnUse" x1="59.9336" y1="194.3889" x2="251.9283" y2="194.3889">
		<stop  offset="0" style="stop-color:#FD2708"/>
		<stop  offset="0.4953" style="stop-color:#EC06A3"/>
		<stop  offset="1" style="stop-color:#8B04EF"/>
	</linearGradient>
	<path class="st2" d="M156.22,200.21c-29.23,0-58.46,0-87.68,0c-1.14,0-2.29,0.08-3.41-0.07c-3.23-0.42-5.23-2.74-5.19-5.93
		c0.03-3.34,1.85-5.44,5.41-5.53c6.57-0.18,13.16-0.11,19.74-0.11c52.89,0,105.78,0,158.66,0.01c2.95,0,5.99-0.15,7.52,3.13
		c2.07,4.45-0.84,8.47-6.22,8.49c-16.57,0.05-33.15,0.03-49.72,0.03c-13.03,0-26.06,0-39.1,0
		C156.22,200.22,156.22,200.21,156.22,200.21z"/>
	<linearGradient id="SVGID_4_" gradientUnits="userSpaceOnUse" x1="59.934" y1="243.2683" x2="251.7809" y2="243.2683">
		<stop  offset="0" style="stop-color:#FD2708"/>
		<stop  offset="0.4953" style="stop-color:#EC06A3"/>
		<stop  offset="1" style="stop-color:#8B04EF"/>
	</linearGradient>
	<path class="st3" d="M155.78,237.5c29.63,0,59.25,0.01,88.88-0.02c3.31,0,6.13,0.56,6.93,4.37c0.94,4.48-1.52,7.17-6.7,7.18
		c-21.65,0.04-43.3,0.03-64.95,0.03c-37.22,0-74.44-0.01-111.66-0.01c-0.89,0-1.78,0.03-2.66-0.05c-3.39-0.3-5.69-2.72-5.68-5.92
		c0.02-3.39,2.08-5.51,5.83-5.54c11.27-0.09,22.54-0.05,33.8-0.05c18.74,0,37.47,0,56.21,0C155.78,237.49,155.78,237.5,155.78,237.5
		z"/>
	<linearGradient id="SVGID_5_" gradientUnits="userSpaceOnUse" x1="59.9158" y1="291.6451" x2="251.7626" y2="291.6451">
		<stop  offset="0" style="stop-color:#FD2708"/>
		<stop  offset="0.4953" style="stop-color:#EC06A3"/>
		<stop  offset="1" style="stop-color:#8B04EF"/>
	</linearGradient>
	<path class="st4" d="M155.97,285.83c29.5,0,59,0.01,88.5-0.01c3.41,0,6.43,0.49,7.15,4.57c0.77,4.35-1.67,7.04-6.55,7.06
		c-13.29,0.05-26.59,0.03-39.88,0.03c-45.45,0-90.91,0-136.36,0c-0.51,0-1.01,0-1.52,0c-4.72-0.07-7.5-2.42-7.39-6.24
		c0.11-3.63,2.38-5.4,7.17-5.41c15.19-0.03,30.39-0.01,45.58-0.01c14.43,0,28.87,0,43.3,0
		C155.97,285.82,155.97,285.83,155.97,285.83z"/>
	<linearGradient id="SVGID_6_" gradientUnits="userSpaceOnUse" x1="59.9327" y1="339.9886" x2="190.2087" y2="339.9886">
		<stop  offset="0" style="stop-color:#FD2708"/>
		<stop  offset="0.4953" style="stop-color:#EC06A3"/>
		<stop  offset="1" style="stop-color:#8B04EF"/>
	</linearGradient>
	<path class="st5" d="M125.15,334.08c19.23,0.01,38.46-0.03,57.69,0.07c1.92,0.01,4.49,0.28,5.58,1.49
		c1.29,1.42,2.16,4.27,1.62,6.01c-0.53,1.69-2.94,3.64-4.75,3.9c-4.22,0.6-8.57,0.28-12.88,0.28c-34.67,0.01-69.33,0-104-0.01
		c-1.01,0-2.04,0.06-3.03-0.09c-3.35-0.48-5.54-3.02-5.46-6.2c0.09-3.3,2.22-5.38,6.01-5.42c9.11-0.09,18.22-0.04,27.33-0.05
		C103.9,334.07,114.53,334.07,125.15,334.08z"/>
	<linearGradient id="SVGID_7_" gradientUnits="userSpaceOnUse" x1="259.0995" y1="96.6054" x2="347.293" y2="96.6054">
		<stop  offset="0" style="stop-color:#FD2708"/>
		<stop  offset="0.4953" style="stop-color:#EC06A3"/>
		<stop  offset="1" style="stop-color:#8B04EF"/>
	</linearGradient>
	<path class="st6" d="M283.85,117.82c3.01-3.26,5.41-6.04,7.99-8.63c14.46-14.51,28.96-28.98,43.44-43.47
		c0.8-0.8,1.58-1.65,2.45-2.37c2.53-2.08,5.65-1.94,7.85,0.29c2.22,2.24,2.29,5.24,0.14,7.84c-0.56,0.68-1.22,1.29-1.84,1.91
		c-18.15,18.15-36.3,36.3-54.46,54.45c-4.65,4.64-6.72,4.64-11.36,0.02c-5.28-5.27-10.56-10.54-15.82-15.83
		c-3.64-3.65-4.11-6.78-1.47-9.48c2.7-2.76,5.87-2.39,9.47,1.24C274.59,108.19,278.86,112.67,283.85,117.82z"/>
</g>
</svg>
