<?xml version="1.0" encoding="utf-8"?>
<!-- Generator: Adobe Illustrator 24.1.3, SVG Export Plug-In . SVG Version: 6.00 Build 0)  -->
<svg version="1.1" id="Layer_1" xmlns="http://www.w3.org/2000/svg" xmlns:xlink="http://www.w3.org/1999/xlink" x="0px" y="0px"
	 viewBox="0 0 400 400" style="enable-background:new 0 0 400 400;" xml:space="preserve">
<style type="text/css">
	.st0{fill:url(#SVGID_1_);}
	.st1{fill:url(#SVGID_2_);}
	.st2{fill:url(#SVGID_3_);}
	.st3{fill:url(#SVGID_4_);}
	.st4{fill:url(#SVGID_5_);}
	.st5{fill:url(#SVGID_6_);}
	.st6{fill:url(#SVGID_7_);}
	.st7{fill:url(#SVGID_8_);}
</style>
<g>
	<g>
		<g>
			<g>
				<linearGradient id="SVGID_1_" gradientUnits="userSpaceOnUse" x1="39.7346" y1="197.9297" x2="359.2654" y2="197.9297">
					<stop  offset="0" style="stop-color:#FD2708"/>
					<stop  offset="0.4953" style="stop-color:#EC06A3"/>
					<stop  offset="1" style="stop-color:#8B04EF"/>
				</linearGradient>
				<path class="st0" d="M113.06,138.08c-3.56-3.51-6.99-6.87-10.4-10.25c-15.31-15.22-30.61-30.44-45.92-45.66
					c-0.29-0.29-0.62-0.56-0.89-0.87c-1.94-2.2-1.66-3.56,1.04-4.68c6.29-2.6,12.58-5.18,18.89-7.71
					c53.89-21.6,107.78-43.19,161.68-64.78c3.16-1.27,3.7-1.16,6.16,1.72c18.09,21.24,36.17,42.48,54.23,63.74
					c9.41,11.07,18.77,22.18,28.2,33.24c0.54,0.64,1.37,1.27,2.15,1.42c4,0.77,5.72,3.53,6.82,7.1c0.52,1.68,1.27,3.43,2.37,4.76
					c6.62,7.99,13.38,15.87,20.08,23.79c2.74,3.24,2.37,4.7-1.52,6.16c-5.91,2.21-11.78,4.51-17.71,6.65
					c-1.59,0.57-2.14,1.39-2.15,3.07c-0.06,12.54-0.22,25.08-0.33,37.61c-0.01,0.57-0.05,1.27,0.24,1.69
					c2.95,4.29,1.74,8.85,1.04,13.41c-0.15,0.95-0.2,1.97-0.02,2.9c3.39,18.02,6.83,36.02,10.23,54.04
					c0.32,1.71,0.64,3.47,0.55,5.18c-0.07,1.27-0.82,2.5-1.27,3.75c-0.31-0.04-0.61-0.09-0.92-0.13c-0.57-1.03-1.15-2.07-1.72-3.1
					c-0.53,5.36,0.63,10.41,2,15.42c0.68,2.48,1.61,4.89,2.17,7.39c0.2,0.88-0.38,1.93-0.6,2.9c-0.97-0.41-2.33-0.55-2.85-1.28
					c-2.92-4.14-6.93-7.24-10.2-10.99c-12.71-14.61-18.13-31.79-15.82-50.97c0.98-8.17,3.7-16.13,5.56-24.2
					c0.23-0.98,0.07-2.04,0.08-3.07c0.05-4.15-1.57-8.54,1.84-12.2c0.29-0.31,0.4-0.91,0.4-1.38c0.02-11.7,0.02-23.41,0.02-35.56
					c-15.63,5.78-31.06,11.49-46.62,17.24c27.46,37.03,35.93,77.72,23.07,121.97c-9.9,34.09-30.9,60.1-61.57,77.99
					c-61.12,35.64-139.61,17.18-179.11-42.45c-22-33.21-27.82-69.69-17.82-108.18C54.45,185.31,78.08,157.22,113.06,138.08z
					 M267.02,174.55c3.13-2.34,3.35-3.66,1.1-6.04c-6.58-6.97-13.84-13.13-21.77-18.52c-2.53-1.72-5.18-2.34-8.26-1.72
					c-1.9,0.38-3.94,0.27-5.9,0.13c-0.63-0.05-1.4-0.76-1.78-1.37c-0.65-1.08-1.05-2.31-1.67-3.75c1.95,0.12,3.87,0.24,5.79,0.35
					c-5.34-4.35-11.03-5.74-17.44-3.17c-0.84,0.34-2.06-0.25-3.1-0.46c-0.58-0.12-1.46-0.65-1.68-0.44
					c-1.98,1.89-4.36,1.66-6.79,1.69c-0.87,0.01-1.86,0.67-2.57,1.29c-2.31,2.01-4.52,4.15-6.78,6.22c-1.53,1.4-2.89,1.79-4.23-0.39
					c-0.51-0.83-1.58-1.38-2.5-1.87c-1.02-0.54-2.2-0.75-3.22-1.29c-2.62-1.38-3.24-4.12-3.23-6.57c0-1,2.38-2.08,3.8-2.94
					c1.13-0.68,2.43-1.07,3.65-1.59c-0.04-0.29-0.09-0.57-0.13-0.86c-1.51-0.23-3.04-0.4-4.54-0.72c-0.99-0.21-1.94-0.65-2.91-0.98
					c0.48-0.83,0.97-1.65,1.42-2.48c0.06-0.11-0.03-0.3-0.06-0.46c-8.41,0-16.8,0-25.2,0c-0.09,0.38-0.18,0.77-0.28,1.15
					c4.43,1.1,6.91,6.07,12.48,5.53c-1.36,1.86-2.96,3.32-4.4,4.93c-2.19,2.43-4.14,0.01-6.07-0.37c0,1.06,0.28,2.06-0.06,2.75
					c-0.76,1.56-6.24,3.39-7.94,2.72c-3.35-1.33-6.38-3.95-10.4-2.48c-0.09,0.03-0.26-0.16-0.55-0.36c0.33-2.15,2.05-2.22,3.67-2.32
					c2.62-0.16,4.99-0.8,6.68-3.03c-3.23-2.86-5.33-2.74-8.72-0.48c-2.92,1.95-5.34,5.5-10.05,3.44c0.76,1.69,1.29,2.87,1.94,4.31
					c-3.8,0.68-7.33,1.31-10.85,1.96c-0.56,0.11-1.12,0.32-1.64,0.58c-4.62,2.26-9.19,4.6-13.84,6.78
					c-1.87,0.88-2.63,2.11-2.17,4.16c3.21,0.78,6.43,1.49,9.58,2.41c0.46,0.13,0.98,1.31,0.88,1.9c-0.19,1.11-0.82,2.14-1.26,3.21
					c0.22,0.15,0.43,0.3,0.65,0.45c1.43-1.53,3.3-2.85,4.16-4.65c0.69-1.44,1.41-2.28,2.78-2.78c1.17-0.43,2.35-0.84,3.46-1.39
					c1.66-0.82,3.29-1.66,2.89-4.07c-0.08-0.47,0.65-1.19,1.16-1.61c1.53-1.26,3.36-2.22,4.68-3.66c3.35-3.66,12.13-3.1,14.12,1.83
					c0.23-0.02,0.49,0,0.72-0.07c1.51-0.45,3.01-0.92,4.52-1.4c2.84-0.9,3.84-0.27,3.32,2.66c-0.4,2.23,0.37,3.23,2.26,3.88
					c0.54,0.19,1.03,0.54,1.53,0.83c2.13,1.25,2.24,1.88,0.6,3.83c-0.8,0.95-1.66,1.85-2.98,3.31c1.61-0.25,2.41-0.38,3.2-0.49
					c0.77-0.11,1.53-0.2,2.39-0.31c-0.61,4.11-1.32,4.64-4.89,4.63c-2.22,0-4.43,0.39-6.65,0.51c-0.81,0.04-1.63-0.2-2.45-0.31
					c0.48-0.74,0.84-1.58,1.46-2.18c0.64-0.63,1.53-0.99,2.27-1.52c0.65-0.46,1.25-1,2.28-1.84c-7.47,1.3-14.25,2.47-21.02,3.65
					c0.02,0.22,0.04,0.44,0.06,0.66c1.42,0.07,2.84,0.14,4.67,0.23c-0.7,1.42-1.25,2.53-1.85,3.76c2.12,0.23,4.03,0.44,5.95,0.65
					c0.06,0.28,0.11,0.55,0.17,0.83c-4.12,3.39-10.13,2.7-14.03,6.55c-0.15-0.17-0.3-0.35-0.44-0.52c0.06-0.99,0.12-1.98,0.2-3.49
					c-3.12,1.5-5.96,2.66-8.56,4.2c-1.05,0.62-2.07,1.99-2.28,3.17c-0.39,2.17-1.26,3.18-3.46,3.81c-3.61,1.04-7.52,1.83-9.85,5.31
					c-2.39,3.55-4.68,7.17-7.08,10.71c-0.69,1.01-1.46,2.13-2.47,2.73c-3.83,2.26-6.39,5.63-9.01,9.11
					c-2.14,2.84-3.28,5.49-2.29,9.09c1.02,3.71-0.94,6.59-3.73,9.15c-0.44-2.44-0.65-4.87-0.39-7.24c0.38-3.39-1.21-5.3-4.72-4.87
					c-1.12,0.14-3.01,0.9-3.09,1.55c-0.32,2.67-1.63,2.9-3.78,2.33c-1.87-0.49-8.37,4.58-8.45,6.5c-0.01,0.16,0.12,0.32,0.11,0.48
					c-0.17,1.6-0.14,3.25-0.57,4.77c-1.25,4.41-2.66,8.79-0.97,13.37c0.24,0.65,0.93,1.47,1.53,1.59c3.43,0.65,4.8-0.37,5.41-3.74
					c0.51-2.81,2.24-4.43,5.75-5.01c-1.08,5.15-2.12,10.13-3.21,15.32c0.79,0.05,1.51,0.12,2.23,0.14c4.03,0.15,4.36,0.58,3.68,4.63
					c-0.69,4.12-1.07,8.27,0.44,12.29c0.29,0.78,1.37,2,1.78,1.89c2.59-0.71,4.64,0,6.6,2.5c0.37-1.56,0.69-2.47,0.79-3.41
					c0.18-1.64,3.71-5.84,5.23-6.06c0.3-0.04,0.81-0.02,0.92,0.16c1.31,2.11,3.29,2.53,5.58,2.48c0.49-0.01,1.12,0.67,1.48,1.17
					c2.58,3.62,2.57,3.63,6.4,1.89c3.23-1.47,5.52-0.28,6.11,3.18c0.18,1.06,0.13,2.2,0.5,3.18c0.53,1.42,1.18,2.87,2.09,4.07
					c1.53,2.02,3.25,3.91,5.01,5.73c1.16,1.2,2.36,2.65,3.84,3.2c3.77,1.39,7.95,1.87,10.5,5.55c0.04,0.06,0.13,0.1,0.21,0.13
					c3.87,1.32,6.68,3.92,8.78,7.34c1.07,1.74,1.92,3.61,2.97,5.36c0.62,1.04,1.31,2.12,2.2,2.91c1.42,1.26,3.01,2.35,4.6,3.39
					c0.57,0.37,1.36,0.55,2.06,0.56c3.96,0.04,7.65,0.8,10.77,3.49c0.6,0.51,1.68,1.01,2.33,0.81c5.24-1.55,10.38-0.22,15.54,0.37
					c0.45,0.05,1.06,0.32,1.27,0.67c1.17,1.99,3.11,1.94,5.01,2.12c1.56,0.15,3.15,0.29,4.66,0.71c3.05,0.85,3.58,1.83,2.35,4.7
					c-0.7,1.64-1.6,3.35-2.84,4.59c-2.75,2.75-5.81,5.17-8.65,7.84c-0.56,0.52-1.16,1.88-0.9,2.25c1.63,2.28,0.83,4.22-0.43,6.22
					c-0.93,1.47-1.91,2.93-2.68,4.49c-1.29,2.62-3.24,3.4-6.16,3.62c-3.94,0.3-7.82,1.56-11.95,2.46c0.48,1.11,0.58,1.63,0.88,1.98
					c1.73,1.98,1.1,3.5-0.72,5.01c-1.26,1.06-2.62,2.19-3.4,3.59c-1.2,2.16-2.76,3.43-5.19,3.72c-1.49,0.18-1.93,0.97-1.46,2.43
					c0.46,1.42-0.15,2.38-1.58,2.86c-0.75,0.26-1.47,0.64-2.56,1.13c0.92,0.28,1.45,0.5,1.99,0.6c15.76,2.88,31.56,3.09,47.3,0.03
					c35.84-6.96,64.1-25.62,84.25-56.03c3.98-6,6.02-13.35,2.56-20.77c-1.89-4.05-0.49-8.35-1.12-12.49
					c-0.09-0.57,0.26-1.36,0.67-1.83c2.03-2.36,1.45-4.9,0.69-7.7c-1.66,0.45-3.24,1.25-4.81,1.22c-2.9-0.06-0.51-3.02-2.52-4.42
					c-1.2,0.49-3.4,0.69-4.31,1.89c-2.12,2.76-4.72,3.98-8.01,4.25c-0.65,0.05-1.29,0.3-1.91,0.54c-5.33,2-5.34,2.02-8.73-2.87
					c-0.83-1.2-2.24-2.57-2.14-3.75c0.25-2.84-1.13-4.67-2.6-6.73c-0.85-1.18-1.89-3.07-1.49-4.14c1.22-3.27,0.18-5.65-1.94-7.9
					c-1.09-1.16-1.22-2.38-0.66-3.87c0.93-2.48,1.68-5.03,2.57-7.53c1.01-2.84,1.02-5.54-0.03-8.47c-0.69-1.92-0.55-4.23-0.4-6.33
					c0.23-3.09,1.12-6.16,1.16-9.24c0.05-3.67,2.05-6.44,4.16-8.77c1.55-1.72,2.12-3.09,1.81-5.15c-0.67-4.46-0.68-4.84,3.43-6.69
					c2.12-0.95,1.45-3.04,1.11-4.63c-0.17-0.8-1.44-1.36-2.21-2.03c-1.87-1.63-3.76-3.25-5.58-4.93c-0.18-0.17-0.06-0.84,0.11-1.18
					c1.14-2.17,0.42-4.14-0.45-6.18c-0.42-0.99-0.41-2.16-0.66-3.63c3.44,1.34,6.2,2.46,8.99,3.48c1.23,0.45,2.41,0.91,3.42-0.74
					c0.96-1.58,0.87-2.82-0.37-3.99c-1.32-1.25-2.79-2.33-4.14-3.55c-0.63-0.57-1.13-1.28-1.53-1.75c2.56-2.22,6.33,1.74,8.57-3.16
					c-3.14-0.35-5.73-0.63-8.49-0.94c0.13-1.74-1.93-4.08,0.99-5.82c-1.41-1.71-2.93-3.18-3.94-4.94c-0.46-0.8-0.33-2.48,0.24-3.21
					c0.91-1.17,2.15-0.87,2.98,0.57c1.35,2.35,2.76,4.68,4.22,6.97c0.41,0.64,1.09,1.59,1.62,1.58c2.61-0.08,3.23,1.43,3.36,3.58
					C266.57,173.09,266.84,173.78,267.02,174.55z M60.98,79.14c3.34,3.69,6.57,7.59,10.13,11.16c14.89,14.92,29.9,29.73,44.81,44.63
					c1.31,1.3,2.3,1.48,4.06,0.76c5.13-2.11,10.36-3.98,15.61-5.79c1.53-0.53,2.32-1.09,2.26-2.89c-0.21-7.05-0.16-14.11-0.43-21.16
					c-0.08-2.14,0.59-3.37,2.57-3.84c6.99-1.67,13.93-3.82,21.02-4.82c15.74-2.23,31.48-1.18,47.1,1.44
					c18.22,3.04,35.6,8.61,51.64,17.96c5.91,3.44,11.32,7.54,15.59,12.99c1.61,2.05,2.15,4.04,1.13,6.65
					c-3.01,7.73-5.76,15.56-8.7,23.31c-0.55,1.44-0.45,2.37,0.71,3.47c2.16,2.06,4.2,4.25,6.14,6.53c1.14,1.34,2.13,1.57,3.81,0.92
					c15.21-5.95,30.45-11.84,45.72-17.64c2.14-0.81,3.09-1.83,3.03-4.26c-0.3-12.19-0.36-24.4-0.72-36.59
					c-0.05-1.64-1.02-3.53-2.12-4.83c-26.12-30.96-52.32-61.86-78.5-92.77c-2.03-2.4-4.05-4.8-6.08-7.19
					C179.8,31.3,120.02,55.37,60.98,79.14z M263.26,157.79c2.68-7.02,5.14-13.89,7.96-20.61c1.17-2.78,0.75-4.71-1.17-6.9
					c-6.36-7.22-14.39-12-23.12-15.57c-26.25-10.73-53.47-16.12-81.89-13.26c-7.19,0.72-14.23,2.96-21.31,4.65
					c-0.79,0.19-1.94,1.3-1.94,1.99c0,6.22,0.21,12.44,0.39,18.66c0.01,0.36,0.26,0.72,0.36,0.99
					C187.67,118.23,227.82,128.07,263.26,157.79z M120.26,374.1c-0.28-2.39-0.24-4.22-0.74-5.88c-1.75-5.79-4.37-11.4-5.36-17.3
					c-1.01-6.05-4.05-9.03-9.65-10.26c-2.37-0.52-3.89-2.11-5.27-4.17c-4.84-7.23-9.47-14.66-16.13-20.47
					c-1.49-1.3-1.95-2.79-1.28-4.67c0.81-2.3,0.8-4.41-0.83-6.55c-0.59-0.77-0.28-2.38-0.08-3.57c0.22-1.35,0.79-2.63,1.17-3.96
					c0.27-0.93,0.18-2.14,0.76-2.76c3.7-3.98,1.71-8.49,1.12-12.74c-0.26-1.86-1.88-3.52-3.05-5.56c-1.73,3.78-1.73,3.78-4.57,1.35
					c-0.31-0.27-0.64-0.59-1.02-0.7c-3.03-0.95-4.07-3.09-3.87-6.1c0.06-0.9-0.31-1.83-0.22-2.72c0.27-2.94-1.46-4.33-3.82-5.43
					c-0.99-0.46-2.16-1.16-2.6-2.06c-1.32-2.68-3.15-4-6.22-3.58c-0.71,0.1-1.66-0.27-2.25-0.73c-2.09-1.62-4.02-3.46-6.13-5.06
					c-1.97-1.49-2.83-3.26-2.57-5.77c0.16-1.56-0.21-3.17-0.35-4.76c-0.3,0.03-0.59,0.07-0.89,0.1c-3.14,26.62,1.09,52,13.6,75.82
					C73.47,342.22,93.46,361.18,120.26,374.1z M342.34,258.15c0.15-0.82,0.26-1.06,0.22-1.27c-3.04-16.28-6.06-32.57-9.2-48.83
					c-0.13-0.69-1.27-1.56-2.02-1.66c-0.88-0.11-2.26,0.27-2.71,0.92c-0.92,1.33-1.65,2.93-1.94,4.52
					c-1.53,8.21-3.58,16.41-4.17,24.7c-1.02,14.28,1.85,27.9,9.86,40.1c0.44,0.67,0.97,1.29,1.72,2.28
					c-1-7.33-1.92-14.08-2.84-20.82c0.29-0.05,0.57-0.11,0.86-0.16c2.53,9.57,5.03,19.15,9.7,27.96c-0.47-2.94-1.23-5.82-1.64-8.75
					c-0.41-2.95-0.54-5.94-0.68-8.92c-0.15-3.06-0.21-6.13-0.25-9.2c-0.04-2.89-0.01-5.77-0.01-8.66c0.29-0.01,0.58-0.01,0.86-0.02
					C340.78,252.76,341.49,255.19,342.34,258.15z M260.68,202.27c0.88,1.72,1.25,3.57,2.11,3.84c1.36,0.42,3.55,0.34,4.49-0.52
					c1.96-1.79,3.93-1.86,6.18-1.38c2.18,0.46,4.36,0.95,6.53,1.5c4.58,1.16,4.5,1.18,4.73,6.02c0.05,1.09,0.57,2.63,1.39,3.14
					c3.06,1.91,6.31,3.51,9.53,5.16c0.59,0.31,1.34,0.32,2.62,0.61c-2.12-5.74-4.06-10.97-5.99-16.2c-0.31-0.04-0.62-0.08-0.93-0.12
					c-0.57,1.36-1.13,2.73-1.94,4.66c-1.04-1.13-2.13-2.3-3.54-3.82c1.79-0.47,2.92-0.77,4.04-1.06c-0.81-2.9-2.36-5.23-5.24-6.42
					c-2.58-1.07-3.65-2.87-4.23-5.32c-0.13-0.53-0.44-1.02-0.76-1.73c-2.73,1.51-5.4,2.82-7.94,0.95c-0.9,1.61-1.63,2.91-2.36,4.22
					c-0.53,0.95-1.3,1.84-1.55,2.86c-0.74,3.08-1.29,3.64-4.44,3.75C262.81,202.4,262.24,202.34,260.68,202.27z M335.42,148.36
					c6.4-2.4,12.16-4.55,18.21-6.82c-6.13-7.2-12.11-14.22-18.21-21.39C335.42,129.61,335.42,138.68,335.42,148.36z M91.97,179.76
					c1.44-0.09,2.67-0.34,3.87-0.21c2.6,0.29,4.16-1.3,5.65-2.96c0.84-0.94,0.87-2.08-0.7-2.35
					C97.36,173.66,93.16,176.24,91.97,179.76z M334.77,205.16c-0.22-3.03-2.22-4.55-5.4-4.21c-2.37,0.26-2.7,0.64-2.41,2.44
					C329.59,203.99,332.11,204.56,334.77,205.16z M334.97,200.44c0.32-2.41-0.97-3.97-3.6-4.18c-2.33-0.18-3.97,0.99-4.06,2.72
					C329.88,199.47,332.43,199.95,334.97,200.44z M99.58,184.86c0.21,0.18,0.42,0.36,0.63,0.54c0.58-0.45,1.31-0.79,1.71-1.37
					c1.08-1.54,1.82-3.35,4.04-3.71c0.24-0.04,0.32-1.11,0.47-1.7c-1.63,0.16-3.93-0.27-4.73,0.63
					C100.46,180.64,100.24,182.94,99.58,184.86z M330.37,129.03c-0.85,4.91-0.48,5.9,2.75,7.48
					C333.79,131.38,333.4,130.25,330.37,129.03z M133.46,139.09c1.41-1.2,2.54-2.08,3.5-3.12c0.08-0.09-0.86-1.59-1.53-1.81
					c-1.29-0.42-4.32,1.46-4.02,2.35C131.71,137.37,132.58,138.03,133.46,139.09z M96.98,181.45c-4.69,1.21-4.45,5.28-6.21,7.88
					C94.25,188.09,95.43,185.07,96.98,181.45z M330.46,136.79c-0.98,5.12-0.69,5.85,2.64,6.95
					C333.48,141.03,333.73,138.38,330.46,136.79z M332.65,121.18c0.73-4.01,0.07-5.57-2.71-6.38
					C329.34,119.2,329.67,119.98,332.65,121.18z M332.67,188.15c0.83-3.82,0.18-5.81-2.52-7.58
					C330.12,183.44,328.91,186.47,332.67,188.15z M330.13,194.2c1.12,0,1.9,0,2.8,0c0.29-2.67-0.07-4.84-2.8-6.39
					C330.13,190.07,330.13,192,330.13,194.2z M330.27,122.14c-0.58,4.74-0.39,5.16,2.78,6.21
					C333.51,123.61,333.39,123.31,330.27,122.14z M332.61,172.92c0.94-4.39,0.58-5.56-1.95-6.77
					C329.73,170.39,329.88,170.95,332.61,172.92z M332.61,180.26c1.15-3.63,0.34-5.9-2.41-6.61
					C330.09,176.21,329.35,178.94,332.61,180.26z M332.81,165.24c0.61-4.3,0.3-5.14-2.4-6.56
					C330.2,161.22,329.75,163.71,332.81,165.24z M332.94,158.19c0.63-4.99,0.43-5.58-2.38-6.75
					C330.34,154.02,329.59,156.65,332.94,158.19z M330.35,144.63c-0.49,2.77-0.25,5.05,2.71,6.15
					C333.74,146.31,333.46,145.66,330.35,144.63z M329.4,108.22c-0.75,3.73-0.49,4.27,2.55,5.24
					C332.41,110.22,331.73,108.81,329.4,108.22z"/>
			</g>
		</g>
		<linearGradient id="SVGID_2_" gradientUnits="userSpaceOnUse" x1="325.9825" y1="236.1903" x2="337.8212" y2="236.1903">
			<stop  offset="0" style="stop-color:#FD2708"/>
			<stop  offset="0.4953" style="stop-color:#EC06A3"/>
			<stop  offset="1" style="stop-color:#8B04EF"/>
		</linearGradient>
		<path class="st1" d="M328.67,221.81c1.64,10.53,3.38,21.69,5.12,32.85c0.23-0.03,0.45-0.07,0.68-0.1
			c-1.69-14.19-3.37-28.38-5.02-42.19c-3.72,7.31-4.9,41.38-1.29,47.66C326.85,246.85,327.01,233.97,328.67,221.81z M332.96,212.82
			c-0.41,0.05-0.82,0.1-1.23,0.15c1.6,13.36,3.21,26.71,4.81,40.07c0.43-0.05,0.85-0.1,1.28-0.16
			C336.2,239.53,334.58,226.17,332.96,212.82z"/>
		<linearGradient id="SVGID_3_" gradientUnits="userSpaceOnUse" x1="76.0297" y1="240.1733" x2="90.3438" y2="240.1733">
			<stop  offset="0" style="stop-color:#FD2708"/>
			<stop  offset="0.4953" style="stop-color:#EC06A3"/>
			<stop  offset="1" style="stop-color:#8B04EF"/>
		</linearGradient>
		<path class="st2" d="M76.03,241.02c0.14-3.22,1.69-4.62,3.72-5.51c1.86-0.82,3.52-0.34,4.9,1.2c1.49,1.66,3,3.3,4.61,4.84
			c1.44,1.38,1.24,2.68,0.57,3.69c-2.14,0-3.86,0-5.76,0c-0.87-1.62,1.34-4.48-1.6-5.67C80.32,238.68,78.16,238.6,76.03,241.02z"/>
		<linearGradient id="SVGID_4_" gradientUnits="userSpaceOnUse" x1="89.3036" y1="246.6131" x2="98.0851" y2="246.6131">
			<stop  offset="0" style="stop-color:#FD2708"/>
			<stop  offset="0.4953" style="stop-color:#EC06A3"/>
			<stop  offset="1" style="stop-color:#8B04EF"/>
		</linearGradient>
		<path class="st3" d="M89.3,248.68c0.84-1.62,1.48-3.13,2.4-4.46c0.38-0.55,1.66-1.14,2.02-0.92c1.55,0.98,2.93,2.23,4.31,3.46
			c0.15,0.13-0.01,0.81-0.21,1.11C96.09,250.4,91.15,250.62,89.3,248.68z"/>
		<linearGradient id="SVGID_5_" gradientUnits="userSpaceOnUse" x1="248.425" y1="167.5279" x2="253.5928" y2="167.5279">
			<stop  offset="0" style="stop-color:#FD2708"/>
			<stop  offset="0.4953" style="stop-color:#EC06A3"/>
			<stop  offset="1" style="stop-color:#8B04EF"/>
		</linearGradient>
		<path class="st4" d="M248.42,164.48c1.89,0.41,3.59,0.42,4.81,1.2c0.55,0.35,0.34,2.24,0.15,3.37c-0.41,2.44-2.31,1.2-3.6,1.2
			c-1.6,0-1.12-1.14-1-2.16C248.89,167.23,248.63,166.32,248.42,164.48z"/>
		<linearGradient id="SVGID_6_" gradientUnits="userSpaceOnUse" x1="100.2131" y1="248.2949" x2="103.4704" y2="248.2949">
			<stop  offset="0" style="stop-color:#FD2708"/>
			<stop  offset="0.4953" style="stop-color:#EC06A3"/>
			<stop  offset="1" style="stop-color:#8B04EF"/>
		</linearGradient>
		<path class="st5" d="M103.47,248.39c-0.96,0.63-1.54,1.27-2.18,1.32c-0.34,0.03-1.17-1.07-1.07-1.46c0.15-0.58,0.9-1.26,1.49-1.38
			C102.1,246.8,102.67,247.66,103.47,248.39z"/>
		<linearGradient id="SVGID_7_" gradientUnits="userSpaceOnUse" x1="325.9825" y1="236.1903" x2="334.4702" y2="236.1903">
			<stop  offset="0" style="stop-color:#FD2708"/>
			<stop  offset="0.4953" style="stop-color:#EC06A3"/>
			<stop  offset="1" style="stop-color:#8B04EF"/>
		</linearGradient>
		<path class="st6" d="M328.67,221.81c-1.66,12.16-1.82,25.05-0.51,38.22c-3.6-6.28-2.43-40.36,1.29-47.66
			c1.64,13.81,3.33,28,5.02,42.19c-0.23,0.03-0.45,0.07-0.68,0.1C332.05,243.49,330.31,232.34,328.67,221.81z"/>
		<linearGradient id="SVGID_8_" gradientUnits="userSpaceOnUse" x1="331.7321" y1="232.9266" x2="337.8212" y2="232.9266">
			<stop  offset="0" style="stop-color:#FD2708"/>
			<stop  offset="0.4953" style="stop-color:#EC06A3"/>
			<stop  offset="1" style="stop-color:#8B04EF"/>
		</linearGradient>
		<path class="st7" d="M332.96,212.82c1.62,13.35,3.24,26.71,4.86,40.06c-0.43,0.05-0.85,0.1-1.28,0.16
			c-1.6-13.36-3.21-26.71-4.81-40.07C332.14,212.92,332.55,212.87,332.96,212.82z"/>
	</g>
</g>
</svg>
