<?xml version="1.0" encoding="utf-8"?>
<!-- Generator: Adobe Illustrator 24.1.3, SVG Export Plug-In . SVG Version: 6.00 Build 0)  -->
<svg version="1.1" id="Layer_1" xmlns="http://www.w3.org/2000/svg" xmlns:xlink="http://www.w3.org/1999/xlink" x="0px" y="0px"
	 viewBox="0 0 400 400" style="enable-background:new 0 0 400 400;" xml:space="preserve">
<style type="text/css">
	.st0{fill:url(#SVGID_1_);}
	.st1{fill:url(#SVGID_2_);}
	.st2{fill:url(#SVGID_3_);}
	.st3{fill:url(#SVGID_4_);}
	.st4{fill:url(#SVGID_5_);}
</style>
<g>
	<linearGradient id="SVGID_1_" gradientUnits="userSpaceOnUse" x1="79.7016" y1="204.4131" x2="223.7948" y2="204.4131">
		<stop  offset="0" style="stop-color:#FD2708"/>
		<stop  offset="0.4953" style="stop-color:#EC06A3"/>
		<stop  offset="1" style="stop-color:#8B04EF"/>
	</linearGradient>
	<path class="st0" d="M209.38,222.7c-3.4,5.43-5.21,10.25,0.98,15.02c4.01,3.09,3.02,6.94-0.37,10.29
		c-4.8,4.74-9.63,9.45-14.31,14.31c-3.93,4.08-7.66,4.24-11.47-0.01c-2.59-2.89-4.81-4.88-9.52-2.81c-4.46,1.96-5.17,4.62-4.93,8.62
		c0.37,6.16-2.83,8.5-8.72,8.31c-6.24-0.19-12.5-0.19-18.74,0c-6.02,0.18-8.87-2.44-8.55-8.5c0.19-3.54,0.21-6.44-4.29-8.2
		c-4.28-1.68-6.94-1.12-9.72,2.15c-4.18,4.92-8.3,4.49-12.57-0.17c-4.05-4.42-8.29-8.68-12.71-12.73
		c-4.65-4.27-5.18-8.32-0.18-12.54c2.92-2.46,4.14-4.73,2.41-8.95c-1.81-4.39-4.36-5.41-8.49-5.11c-6.02,0.43-8.67-2.53-8.48-8.55
		c0.2-6.24,0.19-12.5,0-18.74c-0.18-5.89,2.13-9.03,8.32-8.72c3.49,0.17,6.48,0.38,8.3-4.13c1.86-4.59,0.92-7.37-2.5-10.33
		c-4.26-3.68-4.13-7.53-0.01-11.47c4.88-4.66,9.59-9.49,14.31-14.31c3.38-3.44,7.3-4.31,10.28-0.31c4.79,6.42,9.56,4.3,14.71,1.03
		c1.77-14.39,1.77-14.39,16.47-14.47c2.75-0.02,5.5-0.02,8.25-0.01c10.88,0.06,10.72,0.08,12.06,11.08
		c0.23,1.88,2.22,4.39,3.97,5.02c2.38,0.86,6.07,1.26,7.88-0.01c9.29-6.53,9.14-6.74,16.94,1.06c3.54,3.53,6.97,7.17,10.64,10.56
		c4.36,4.04,4.76,7.9,0.17,12.02c-2.61,2.34-4.75,4.33-2.86,8.84c1.95,4.65,4.57,5.8,9.05,5.47c5.65-0.42,8.23,2.48,8.09,8.14
		c-0.14,5.74-0.01,11.49-0.03,17.24c-0.04,9.45-0.9,10.33-10.14,10.6C212.14,222.44,210.66,222.61,209.38,222.7z M146.21,144.66
		c-2.52,15.92-18.8,22.46-33.29,13.82c-2.46,2.35-4.97,4.75-7.39,7.06c9.23,14,3.04,29.1-13.44,33.98c0,3.42,0,6.85,0,10.2
		c16.06,3.07,22.83,19.75,13.48,33.2c2.49,2.63,5.02,5.31,7.47,7.9c13.42-9.72,29.74-3.08,33.58,13.09c3.58,0,7.19,0,10.73,0
		c2.4-15.71,18.73-22.29,32.61-13.99c2.7-2.37,5.3-4.66,7.86-6.91c-9.04-13.84-2.91-28.83,13.55-33.77c0-3.42,0-6.84,0-10.19
		c-16.07-3.16-22.71-19.6-13.62-33.05c-2.45-2.72-4.91-5.44-7.27-8.07c-13.41,9.73-29.91,2.94-33.6-13.28
		C153.51,144.66,150.09,144.66,146.21,144.66z"/>
	<linearGradient id="SVGID_2_" gradientUnits="userSpaceOnUse" x1="235.7565" y1="204.4173" x2="391.5" y2="204.4173">
		<stop  offset="0" style="stop-color:#FD2708"/>
		<stop  offset="0.4953" style="stop-color:#EC06A3"/>
		<stop  offset="1" style="stop-color:#8B04EF"/>
	</linearGradient>
	<path class="st1" d="M319.78,246.43c-25.07,0-49.02,0.03-72.97-0.01c-10.21-0.02-11.01-0.85-11.03-11.21
		c-0.03-20.98-0.05-41.95,0.01-62.93c0.02-8.72,1.18-9.85,10.07-9.87c24.22-0.05,48.43-0.02,73.91-0.02c0-7.1-0.4-14,0.18-20.82
		c0.26-3.03,1.83-6.92,4.12-8.43c1.36-0.9,6.03,1.36,7.92,3.4c19.01,20.51,37.7,41.32,56.6,61.93c3.73,4.07,3.95,7.5,0.13,11.67
		c-19.07,20.8-37.93,41.79-57.08,62.5c-1.74,1.88-5.86,3.87-7.43,3.05c-2.19-1.15-4.02-4.81-4.25-7.54
		C319.39,261.26,319.78,254.28,319.78,246.43z M333,253.56c15.03-16.57,29.73-32.78,44.62-49.19
		c-15.23-16.74-29.88-32.85-45.79-50.35c0,4.09,0.01,6.03,0,7.98c-0.08,12.06-0.51,12.45-12.92,12.43
		c-20.99-0.03-41.99-0.03-62.98-0.05c-2.62,0-5.23,0-7.7,0c0,20.62,0,40.01,0,59.24c0.91,0.33,1.36,0.64,1.81,0.64
		c20.99,0.06,41.99,0.17,62.98,0.12c19.77-0.05,19.05-1.28,18.95,17.74C331.97,252.3,332.22,252.48,333,253.56z"/>
	<linearGradient id="SVGID_3_" gradientUnits="userSpaceOnUse" x1="21.7756" y1="71.3589" x2="164.3725" y2="71.3589">
		<stop  offset="0" style="stop-color:#FD2708"/>
		<stop  offset="0.4953" style="stop-color:#EC06A3"/>
		<stop  offset="1" style="stop-color:#8B04EF"/>
	</linearGradient>
	<path class="st2" d="M145.08,64.58c3.98-2.09,6.95-3.93,10.13-5.26c5.67-2.37,10.11,0.52,8.99,6.38
		c-3.4,17.9-7.22,35.72-11.13,53.51c-0.97,4.41-4.27,6.01-8.64,4.38c-16.83-6.28-33.7-12.44-50.41-19.04
		c-5.88-2.32-5.92-7.75-0.55-11.4c1.44-0.98,3.04-1.71,4.54-2.6c1.46-0.87,2.9-1.79,4.28-2.65C93.33,62.91,69.63,49.73,40.8,53.54
		c-3.95,0.52-7.84,1.91-11.77,2.02c-2.39,0.07-6.26-0.98-6.88-2.55c-0.85-2.13-0.17-6.29,1.48-7.78
		c19.62-17.71,42.12-28.75,69.26-26.41c20.55,1.77,35.16,12.98,44.61,31.13C139.9,54.56,142.29,59.2,145.08,64.58z M150.01,75.6
		c-8.77,6.21-12.07,1.46-15.02-4.53c-2.86-5.82-5.92-11.54-9.04-17.23C112.13,28.62,72.41,21.51,52,41.09
		c28.94,1.26,49.45,14.58,61.72,40.68c2.98,6.34,6.29,11.66-3.64,16.13c11.77,4.41,21.9,8.21,32.7,12.26
		C145.16,98.75,147.38,88.14,150.01,75.6z"/>
	<linearGradient id="SVGID_4_" gradientUnits="userSpaceOnUse" x1="21.6427" y1="337.517" x2="164.0553" y2="337.517">
		<stop  offset="0" style="stop-color:#FD2708"/>
		<stop  offset="0.4953" style="stop-color:#EC06A3"/>
		<stop  offset="1" style="stop-color:#8B04EF"/>
	</linearGradient>
	<path class="st3" d="M102.72,320.91c-3.61-2.04-6.77-3.56-9.63-5.51c-4.93-3.38-4.8-8.83,0.68-11c16.92-6.71,34.02-13,51.1-19.31
		c4.46-1.65,7.39,0.56,8.33,4.91c3.74,17.32,7.42,34.66,10.76,52.06c0.43,2.25-0.57,5.96-2.21,7.08c-1.7,1.15-5.14,0.44-7.55-0.31
		c-3.01-0.94-5.74-2.76-9.09-4.45c-2.09,3.88-4.06,7.32-5.82,10.85c-14.32,28.65-37.99,40.18-69.18,33.39
		c-17.22-3.75-32.24-12-45.17-23.83c-2.07-1.9-2.24-5.87-3.3-8.88c3.09-0.8,6.18-2.25,9.28-2.28c11.13-0.11,22.48,1.72,33.36,0.14
		C83.08,351.04,95.23,338.92,102.72,320.91z M52.42,368.21c-0.18,0.65-0.35,1.29-0.53,1.94c7.73,2.41,15.32,5.54,23.22,7.11
		c24.12,4.8,42.01-4.41,52.86-26.38c2.21-4.47,4.95-8.69,7.01-13.22c2.87-6.29,6.57-10.09,14.99-4.88
		c-2.62-12.32-4.9-23.06-7.27-34.2c-11.23,4.25-21.35,8.09-29.94,11.34c1.56,4.41,4.66,8.6,3.62,10.99
		c-9.08,20.8-21.82,38.26-45.62,43.87C64.72,366.19,58.54,367.07,52.42,368.21z"/>
	<linearGradient id="SVGID_5_" gradientUnits="userSpaceOnUse" x1="115.7816" y1="204.3889" x2="187.7345" y2="204.3889">
		<stop  offset="0" style="stop-color:#FD2708"/>
		<stop  offset="0.4953" style="stop-color:#EC06A3"/>
		<stop  offset="1" style="stop-color:#8B04EF"/>
	</linearGradient>
	<path class="st4" d="M187.73,204.26c0.06,19.68-15.86,35.88-35.47,36.11c-20.02,0.23-36.41-15.88-36.48-35.85
		c-0.07-19.98,16.23-36.22,36.22-36.11C171.66,168.52,187.67,184.59,187.73,204.26z M152,180.41c-13.09-0.1-24.02,10.53-24.22,23.56
		c-0.21,13.4,10.71,24.43,24.15,24.39c13.04-0.04,23.79-10.85,23.81-23.94C175.76,191.33,165.06,180.51,152,180.41z"/>
</g>
</svg>
