<?xml version="1.0" encoding="utf-8"?>
<!-- Generator: Adobe Illustrator 24.1.3, SVG Export Plug-In . SVG Version: 6.00 Build 0)  -->
<svg version="1.1" id="Layer_1" xmlns="http://www.w3.org/2000/svg" xmlns:xlink="http://www.w3.org/1999/xlink" x="0px" y="0px"
	 viewBox="0 0 400 400" style="enable-background:new 0 0 400 400;" xml:space="preserve">
<style type="text/css">
	.st0{fill:url(#SVGID_1_);}
	.st1{fill:url(#SVGID_2_);}
	.st2{fill:url(#SVGID_3_);}
	.st3{fill:url(#SVGID_4_);}
</style>
<g>
	<linearGradient id="SVGID_1_" gradientUnits="userSpaceOnUse" x1="23.7349" y1="211.9329" x2="236.5318" y2="211.9329">
		<stop  offset="0" style="stop-color:#FD2708"/>
		<stop  offset="0.4953" style="stop-color:#EC06A3"/>
		<stop  offset="1" style="stop-color:#8B04EF"/>
	</linearGradient>
	<path class="st0" d="M129.79,389.82c-50.18-0.08-92.95-34.45-103.81-83.41c-9.53-42.96,11.88-90.09,50.55-111.16
		c3.82-2.08,7.72-4.04,11.72-5.74c2.3-0.98,3.18-1.9,2.31-4.54c-3.83-11.57-7.39-23.23-11.22-34.79c-0.7-2.12-2.02-4.13-3.42-5.91
		C53.2,115.35,56.63,75.4,84.01,50.65c33.82-30.56,90.12-17.15,106.39,25.45c9.28,24.3,5.96,46.92-9.67,67.78
		c-1.18,1.57-1.45,3.86-1.99,5.86c-3.11,11.53-6.14,23.08-9.28,34.6c-0.78,2.87,0.17,4.21,2.92,5.42
		c27.59,12.16,47,32.25,57.73,60.49c17.49,46.01-1.79,98.87-45.37,124.62C167.96,384.79,149.35,389.86,129.79,389.82z M94.73,203.45
		c-33.46,13.06-62.45,50.97-54.68,96.73c7.41,43.66,46.46,75.48,90.95,74.78c47.81-0.74,85.48-36.39,89.97-80.16
		c4.79-46.63-25.87-80.85-54.51-91.01c-0.27,1.32-0.69,2.59-0.77,3.89c-1.26,21.12-2.73,42.23-3.62,63.37
		c-0.64,15.11-12.8,27.87-28.58,29.03c-14.65,1.08-28.92-9.96-30.77-24.64c-1.71-13.54-2.3-27.22-3.75-40.8
		C97.87,224.33,96.19,214.08,94.73,203.45z M76.1,101.37c-0.17,29.47,22.89,52.77,52.21,52.77c28.46,0.01,51.97-23.01,52.12-51.03
		c0.16-29.51-22.79-53.26-51.71-53.51C99.92,49.37,76.26,72.64,76.1,101.37z M99.92,163.06c0.49,1.96,0.82,3.46,1.23,4.93
		c6.11,22.02,10.64,44.35,12.89,67.1c1.17,11.9,2.01,23.84,2.93,35.76c0.63,8.14,7.51,14.56,15.43,14.28
		c8.26-0.28,14.42-6.69,14.66-14.95c0.37-13.05,0.71-26.11,1.4-39.15c1.02-19.32,3.4-38.48,7.77-57.35
		c0.85-3.68,1.69-7.35,2.6-11.31C131.82,171.07,125.94,171.14,99.92,163.06z"/>
	<linearGradient id="SVGID_2_" gradientUnits="userSpaceOnUse" x1="209.9537" y1="115.0726" x2="387.5" y2="115.0726">
		<stop  offset="0" style="stop-color:#FD2708"/>
		<stop  offset="0.4953" style="stop-color:#EC06A3"/>
		<stop  offset="1" style="stop-color:#8B04EF"/>
	</linearGradient>
	<path class="st1" d="M387.5,115.02c0.04,48.76-39.76,88.68-88.55,88.8c-48.92,0.12-88.97-39.79-89-88.71
		c-0.03-48.9,40.01-88.89,88.91-88.8C347.66,26.41,387.46,66.24,387.5,115.02z M372.41,115.2c0.07-40.42-33.23-73.78-73.65-73.8
		c-40.28-0.02-73.59,33.13-73.73,73.36c-0.13,40.45,33.08,73.89,73.47,73.98C338.96,188.84,372.35,155.61,372.41,115.2z"/>
	<linearGradient id="SVGID_3_" gradientUnits="userSpaceOnUse" x1="55.427" y1="319.7073" x2="131.2811" y2="319.7073">
		<stop  offset="0" style="stop-color:#FD2708"/>
		<stop  offset="0.4953" style="stop-color:#EC06A3"/>
		<stop  offset="1" style="stop-color:#8B04EF"/>
	</linearGradient>
	<path class="st2" d="M127.94,361.23c-30.48-7.5-55.76-21.05-67.66-51.96c-3.81-9.89-5.51-20.2-4.62-31.09
		c4.92,0.48,9.59,0.94,14.33,1.41c0.49,4.78,0.61,9.5,1.49,14.07c3.84,19.94,15.42,34.22,33.36,43.09
		c7.51,3.72,15.74,6.03,23.75,8.69c2.32,0.77,3.24,1.34,2.39,3.94C129.75,353.13,128.99,357.03,127.94,361.23z"/>
	<linearGradient id="SVGID_4_" gradientUnits="userSpaceOnUse" x1="250.5188" y1="119.7759" x2="344.8169" y2="119.7759">
		<stop  offset="0" style="stop-color:#FD2708"/>
		<stop  offset="0.4953" style="stop-color:#EC06A3"/>
		<stop  offset="1" style="stop-color:#8B04EF"/>
	</linearGradient>
	<path class="st3" d="M285.14,155.58c-12.08-12.35-23.4-23.93-34.62-35.41c3.58-3.52,7.04-6.94,10.21-10.07
		c7.95,7.43,16.14,15.09,24.66,23.06c16.47-16.18,33.34-32.76,50.06-49.2c3.54,3.64,6.87,7.06,9.36,9.62
		C325.28,113.88,305.37,134.57,285.14,155.58z"/>
</g>
</svg>
