<?xml version="1.0" encoding="utf-8"?>
<!-- Generator: Adobe Illustrator 24.1.3, SVG Export Plug-In . SVG Version: 6.00 Build 0)  -->
<svg version="1.1" id="Layer_1" xmlns="http://www.w3.org/2000/svg" xmlns:xlink="http://www.w3.org/1999/xlink" x="0px" y="0px"
	 viewBox="0 0 400 400" style="enable-background:new 0 0 400 400;" xml:space="preserve">
<style type="text/css">
	.st0{fill:url(#SVGID_1_);}
	.st1{fill:url(#SVGID_2_);}
	.st2{fill:url(#SVGID_3_);}
</style>
<g>
	<g>
		<linearGradient id="SVGID_1_" gradientUnits="userSpaceOnUse" x1="2.3578" y1="206.0145" x2="399.9884" y2="206.0145">
			<stop  offset="0" style="stop-color:#FD2708"/>
			<stop  offset="0.4953" style="stop-color:#EC06A3"/>
			<stop  offset="1" style="stop-color:#8B04EF"/>
		</linearGradient>
		<path class="st0" d="M380.79,279.9c-0.1,1.59-0.27,3.18-0.3,4.77c-0.29,17.18-0.57,34.36-0.84,51.54
			c-0.02,1.22-0.03,2.43-0.08,3.65c-0.11,2.45-0.65,4.84-3.7,4.7c-3.07-0.14-3.27-2.62-3.23-5.04c0.3-18.24,0.6-36.49,0.89-54.73
			c0.03-1.59,0-3.18,0-4.78c-0.49-0.12-0.98-0.23-1.47-0.35c-0.46,1.11-1.22,2.18-1.35,3.33c-1.59,14.35-3.04,28.71-4.65,43.06
			c-0.33,2.94,0.44,7.49-4.35,6.9c-4.43-0.55-2.79-4.78-2.53-7.53c1.69-17.85,3.54-35.68,5.41-53.51c0.46-4.39,2.92-7.5,6.65-9.8
			c1.09-0.67,2.43-2.1,2.44-3.19c0.16-15.78,0.11-31.57,0.11-47.91c-6.64,0.78-13.66,1.56-20.67,2.43
			c-18.99,2.37-37.97,4.84-56.97,7.11c-3.44,0.41-5.2,1.68-6.27,5.16c-4.02,13.06-8.44,25.99-12.69,38.98
			c-0.46,1.4-0.77,2.85-1.4,5.24c7.13,0,13.75-0.03,20.37,0.01c8.99,0.06,8.97,0.08,8.87,9.26c-0.05,4.25-0.01,8.5-0.01,13.65
			c5.08,0,10.03-0.04,14.98,0.01c5.64,0.06,6.23,0.7,6.18,6.44c-0.05,5.78-0.03,11.56-0.28,17.33c-0.07,1.52-0.74,4.06-1.63,4.3
			c-3.6,0.96-3.15,3.54-3.21,6.08c-0.09,4.1-0.33,8.21-0.27,12.31c0.05,3.76-1.78,5.15-5.33,5.1c-6.04-0.08-12.07-0.02-18.74-0.02
			c0,4.69,0.03,9.06-0.01,13.43c-0.07,8.72-0.09,8.78-9,8.64c-53.35-0.85-106.69-1.76-160.04-2.6c-27.66-0.44-55.33-0.8-82.99-1.19
			c-5.79-0.08-6.54-0.85-6.54-6.64c0-4.84,0-9.69,0-15.63c-5.43,0-10.82,0.09-16.22-0.02c-6.93-0.15-7.26-0.56-7.14-7.31
			c0.09-5.32,0.18-10.64,0.27-15.96c0.1-5.83,0.54-6.32,6.25-6.24c24.93,0.34,49.85,0.7,74.78,1.05c1.45,0.02,2.9,0,4.5-0.81
			c-2.43-1.05-4.9-2.05-7.3-3.17c-38.36-17.88-53.47-61.9-34.38-99.65c2-3.95,2.84-8.48,4.23-12.74
			c4.68-14.29,9.27-28.61,14.11-42.84c1.03-3.04,0.5-4.91-1.73-7.16C52.52,122.35,29.65,99.01,6.68,75.75
			c-2.95-2.98-4.92-6.22-4.16-10.53c0.79-4.48,4.12-7.69,9.17-8.15c7.56-0.7,15.16-1,22.75-1.39c65.57-3.35,131.14-6.62,196.7-10.11
			c6.67-0.36,11.74,1.21,16.75,5.94c49.1,46.3,98.41,92.38,147.7,138.46c3.54,3.31,5.39,6.98,3.85,11.76
			c-1.48,4.57-4.92,6.52-9.59,7.12c-8.25,1.07-8.2,1.2-8.34,9.76c-0.21,12.77-0.42,25.54-0.75,38.31c-0.07,2.65,0.37,4.46,3.03,5.87
			c3.69,1.95,5.68,5.39,5.98,9.65c1.22,17.28,2.42,34.57,3.61,51.86c0.09,1.37,0.15,2.73,0.2,4.1c0.1,2.36,0.2,4.88-2.99,5.16
			c-3.52,0.3-3.73-2.49-3.92-4.93c-0.73-9.4-1.37-18.8-2.03-28.2c-0.4-5.61-0.74-11.23-1.21-16.83c-0.11-1.34-0.6-2.64-0.91-3.96
			C381.94,279.72,381.37,279.81,380.79,279.9z M80.87,141.13c1.98-5.96,3.65-11.09,5.39-16.2c3.31-9.7,10.84-15.02,21.09-14.76
			c4.25,0.11,8.49,0.48,12.73,0.84c61.1,5.24,117.44,24.52,169.13,57.48c11.77,7.5,14.48,15.38,10.12,28.75
			c-1.73,5.3-3.46,10.6-5.34,16.36c2.2-0.12,3.85-0.11,5.46-0.31c22.61-2.82,45.22-5.63,67.81-8.55c6.95-0.9,6.93-1.04,7.53-8.25
			c0.04-0.45-0.1-1.07,0.14-1.33c1.14-1.21,2.38-2.33,3.59-3.48c1.07,1.26,2.71,2.38,3.08,3.82c0.53,2.1,0.14,4.43,0.14,6.94
			c1.55,0,2.65,0.24,3.59-0.05c2.49-0.75,4.91-1.73,7.35-2.61c-1.29-2.2-2.14-4.86-3.92-6.53c-48.96-45.99-98-91.91-147.15-137.7
			c-1.84-1.72-5.05-2.94-7.56-2.84c-27.93,1.22-55.85,2.77-83.77,4.18c-44.92,2.26-89.85,4.45-134.77,6.81
			c-2.01,0.11-3.95,1.52-5.93,2.32c0.87,1.8,1.35,3.98,2.67,5.33c18.79,19.26,37.69,38.4,56.56,57.57
			C72.63,132.79,76.44,136.64,80.87,141.13z M270.24,262.38c0.58-1.01,0.88-1.37,1.02-1.78c7.38-22.5,14.79-44.98,22.07-67.51
			c2.56-7.91,0.55-13.4-6.57-17.96c-54.45-34.88-113.88-54.46-178.51-57.96c-8.4-0.45-13.05,2.86-15.69,10.86
			c-5.7,17.3-11.39,34.6-17.06,51.91c-1.82,5.56-3.56,11.16-5.52,17.31C143.28,199.86,209.77,221.55,270.24,262.38z M81.35,204.87
			c-2.63-0.18-5.54-0.79-8.33-0.44c-1.92,0.24-4.48,1.34-5.39,2.87c-11.52,19.41-13.66,39.74-4.56,60.64
			c13.54,31.08,47.01,46.34,79.75,36.68c31.08-9.17,50.92-41.3,45.58-73.97c-0.22-1.33-1-3.19-2.03-3.64
			c-3.79-1.67-7.8-2.85-10.95-3.95c0.68,8.27,1.89,16.19,1.83,24.11c-0.07,8.33-3.33,15.99-7.65,23.1c-1.31,2.17-2.9,4.33-5.8,2.49
			c-2.63-1.68-1.59-3.88-0.27-5.93c0.41-0.64,0.85-1.27,1.2-1.94c6.85-12.95,8.14-26.18,2.34-39.93c-1.68-3.98-4.04-6.3-8.4-7.25
			c-10.01-2.18-19.93-4.83-30.5-7.44c0.12,2.7,0.19,4.41,0.27,6.14c1.07,0.19,1.66,0.38,2.24,0.38c2.46,0.03,4.88,0.42,4.8,3.51
			c-0.08,3.47-2.91,3.31-5.37,3.33c-2.43,0.02-4.89-0.21-7.29,0.05c-3.51,0.39-5.91,2.44-6.6,5.97c-0.68,3.45,0.35,6.53,3.58,8.11
			c1.81,0.89,4.07,0.98,6.16,1.18c7.13,0.68,12.37,5.45,13.64,12.59c1.08,6.11-2.18,12.93-8.22,15.29c-3.6,1.4-4.5,3.4-4.11,6.76
			c0.1,0.9,0.28,2.03-0.14,2.69c-0.81,1.28-2.29,3.37-3.02,3.19c-1.41-0.34-2.78-1.85-3.62-3.22c-0.54-0.89-0.27-2.39-0.1-3.58
			c0.45-3.29-0.71-4.56-4.19-4.7c-1.46-0.06-2.84-2.25-4.25-3.48c1.44-1.02,2.79-2.7,4.35-2.94c3.12-0.47,6.38,0.1,9.55-0.2
			c4.2-0.4,6.98-3.68,6.96-7.67c-0.02-4.07-2.82-7.17-6.95-7.65c-1.05-0.12-2.13-0.03-3.19-0.12c-6.47-0.58-11.86-5.21-13.28-11.37
			c-1.45-6.26,1.08-13.24,7.12-15.77c4.62-1.94,5.34-4.89,5.34-9.54c-8.82-1.12-17.65-2.48-26.54-3.21
			c-2.11-0.17-5.12,1.15-6.48,2.8c-11.07,13.43-15.77,28.54-11.03,45.86c0.68,2.5,1.68,5.44-2.01,6.32c-3.29,0.79-4.02-2-4.68-4.36
			c-2.8-10.05-3.23-20.23,0.36-30.06C74.12,219.26,77.89,212.35,81.35,204.87z M172.67,357.71c39.02,0.63,77.82,1.25,116.91,1.88
			c0-5.48,0-10.25,0-15.93c-39.05,0-77.83,0-116.91,0C172.67,347.91,172.67,352.43,172.67,357.71z M214.05,320.6
			c-4.86,0-9.84-0.12-14.8,0.11c-0.89,0.04-2.4,1.44-2.45,2.28c-0.25,4.18-0.12,8.39-0.12,12.87c2.08,0.12,3.72,0.27,5.37,0.29
			c33.57,0.41,67.14,0.82,100.71,1.18c11.56,0.12,11.41,0.06,11.56-11.44c0.05-3.61-1.29-4.24-4.51-4.26
			c-18.08-0.08-36.15-0.4-54.23-0.58c-6.81-0.07-13.62-0.01-20.33-0.01c-1.46,2.97,0.9,8.11-4.05,8.23
			c-5.59,0.14-2.37-5.51-4.2-8.24c-1.56,0-3.17,0-4.67,0c-1.89,2.67,0.97,8.05-4.24,8.02C213.04,329.02,215.55,324.17,214.05,320.6z
			 M39.09,333.56c0-1.99-0.44-3.69,0.11-4.95c0.74-1.7,2.26-3.05,3.44-4.56c1.14,1.5,2.63,2.86,3.3,4.55
			c0.55,1.4,0.11,3.18,0.11,5.24c31.32,0.47,62.05,0.94,92.98,1.41c0-5.44,0-10.34,0-15.7c-39.13-0.6-77.91-1.19-117.34-1.79
			c0,3.65-0.22,6.69,0.08,9.68c0.21,2.1-1.84,5.66,1.91,5.97c4.13,0.33,1.54-3.67,2.57-5.43c0.88-1.51,2.23-2.75,3.37-4.1
			c1.18,1.48,2.76,2.8,3.41,4.48c0.58,1.51,0.12,3.42,0.12,5.21C35.44,333.56,36.92,333.56,39.09,333.56z M116.64,342.09
			c-1.17-0.09-2.35-0.24-3.53-0.26c-19.27-0.31-38.55-0.62-57.82-0.89c-10.09-0.14-9.93-0.1-10.19,9.95
			c-0.09,3.71,0.86,4.89,4.73,4.94c34.3,0.42,68.6,1.07,102.89,1.62c13.62,0.22,13.62,0.19,12.74-13.5
			c-0.02-0.26-0.27-0.51-0.69-1.26c-8.88,0-18.03,0-27.63,0c0,1.67,0.44,3.36-0.11,4.61c-0.68,1.56-2.17,2.77-3.31,4.14
			c-1.19-1.46-2.71-2.76-3.45-4.41c-0.61-1.36-0.28-3.14-0.37-4.7c-2.13,0-3.71,0-5.01,0c-1.7,3.1,1.2,8.6-4.23,8.57
			C115.09,350.87,118.33,345.4,116.64,342.09z M202.03,313.6c19.39,0,38.57,0,58.02,0c0.12-1.29,0.31-2.62,0.34-3.95
			c0.05-2.55,0.12-5.27,3.58-5.11c3.37,0.16,3.3,2.94,3.33,5.44c0.06,4.84,0.56,5.16,6,3.56c0-1.55-0.45-3.39,0.12-4.81
			c0.62-1.55,2.17-2.73,3.32-4.07c1.18,1.32,2.82,2.47,3.4,4.02c0.59,1.56,0.13,3.51,0.13,5.68c13.15,0,25.79,0,38.6,0
			c0-4.95,0-9.57,0-14.5c-39.07-0.67-77.83-1.34-116.84-2.02C202.03,303.42,202.03,308.22,202.03,313.6z M215.47,276.72
			c0.27-0.48,0.55-0.95,0.82-1.43c-5.29,0-10.68,0.65-15.84-0.15c-8.97-1.39-15.19,1.34-18.56,9.88c-0.58,1.47-0.89,3.04-1.32,4.56
			c1.39,0.37,2.77,1.04,4.17,1.07c14.89,0.3,29.79,0.47,44.68,0.73c6.48,0.11,6.29,0.12,7.68-6c0.32-1.41,2.44-2.4,3.74-3.59
			c1.02,1.28,2.52,2.42,2.95,3.87c0.51,1.77,0.12,3.8,0.12,5.79c2.27,0,3.87,0,6.01,0c0-2.19-0.46-4.28,0.14-6
			c0.49-1.41,2.25-2.37,3.45-3.53c1.1,1.22,2.7,2.29,3.16,3.71c0.55,1.74,0.13,3.79,0.13,6.92c13.38,0,26.11,0.04,38.84-0.1
			c0.76-0.01,2.11-1.36,2.15-2.13c0.21-4.33,0.1-8.68,0.1-13.76c-24.96,0-49.35,0-72.34,0c-2.1,2.4-3.68,4.21-5.27,6.02
			C218.68,280.63,217.07,278.68,215.47,276.72z M173.9,296.07c-10.48,5.86-20.44,11.42-29.55,16.51c0.53,1.47,1.73,3.48,1.89,5.57
			c0.34,4.38,0.29,8.82,0.08,13.21c-0.15,3.12,0.81,4.37,4.08,4.24c5-0.2,10.03,0.05,15.04,0.07c7.85,0.02,15.7,0.01,24.35,0.01
			c0-5.15-0.1-9.98,0.04-14.8c0.09-3.06-0.63-6.68,3.92-7.58c0.43-0.09,0.94-1.18,0.95-1.81c0.08-4.48,0.04-8.96,0.04-13.26
			C187.15,296.57,179.64,299.12,173.9,296.07z M197.07,231.02c-1.41,12.55-2.78,24.65-4.22,37.5c23.96,0,48.67,0,73.84,0
			C244.46,253.22,221.22,240.63,197.07,231.02z M382.14,272.35c0.25-0.54,0.49-1.08,0.74-1.61c-2.01-0.98-4.03-2.72-6.04-2.72
			c-1.82,0-3.64,1.9-5.46,2.97c0.23,0.45,0.46,0.91,0.69,1.36C375.43,272.35,378.79,272.35,382.14,272.35z"/>
		<linearGradient id="SVGID_2_" gradientUnits="userSpaceOnUse" x1="205.4027" y1="168.2285" x2="280.0709" y2="168.2285">
			<stop  offset="0" style="stop-color:#FD2708"/>
			<stop  offset="0.4953" style="stop-color:#EC06A3"/>
			<stop  offset="1" style="stop-color:#8B04EF"/>
		</linearGradient>
		<path class="st1" d="M208.62,148.11c7.37,2.81,14.12,4.8,20.34,7.86c15.2,7.49,30.17,15.46,45.22,23.26
			c1.07,0.56,2.01,1.35,3.05,1.99c2.12,1.3,3.83,2.92,2.19,5.51c-1.65,2.61-3.71,1.59-5.88,0.31c-8.76-5.13-17.33-10.69-26.47-15.03
			c-12.57-5.96-25.64-10.87-38.39-16.48c-1.51-0.67-2.85-2.75-3.26-4.42C205.23,150.38,207.59,149.03,208.62,148.11z"/>
		<linearGradient id="SVGID_3_" gradientUnits="userSpaceOnUse" x1="79.8978" y1="282.9629" x2="158.2698" y2="282.9629">
			<stop  offset="0" style="stop-color:#FD2708"/>
			<stop  offset="0.4953" style="stop-color:#EC06A3"/>
			<stop  offset="1" style="stop-color:#8B04EF"/>
		</linearGradient>
		<path class="st2" d="M123.6,296.15c-16.61-0.39-30.45-6.55-41.39-19c-1.63-1.85-3.63-3.93-1.13-6.25c2.69-2.5,4.48-0.32,6.34,1.72
			c17.27,18.96,42.54,21.91,63.73,7.46c2.09-1.43,4.27-3.17,6.28-0.41c2.17,2.97-0.31,4.65-2.44,6.2
			C145.6,292.69,135.01,295.83,123.6,296.15z"/>
	</g>
</g>
</svg>
