<?xml version="1.0" encoding="utf-8"?>
<!-- Generator: Adobe Illustrator 24.1.3, SVG Export Plug-In . SVG Version: 6.00 Build 0)  -->
<svg version="1.1" id="Layer_1" xmlns="http://www.w3.org/2000/svg" xmlns:xlink="http://www.w3.org/1999/xlink" x="0px" y="0px"
	 viewBox="0 0 400 400" style="enable-background:new 0 0 400 400;" xml:space="preserve">
<style type="text/css">
	.st0{fill:url(#SVGID_1_);}
	.st1{fill:url(#SVGID_2_);}
	.st2{fill:url(#SVGID_3_);}
</style>
<g>
	<linearGradient id="SVGID_1_" gradientUnits="userSpaceOnUse" x1="9.1177" y1="200.7613" x2="383.5047" y2="200.7613">
		<stop  offset="0" style="stop-color:#FD2708"/>
		<stop  offset="0.4953" style="stop-color:#EC06A3"/>
		<stop  offset="1" style="stop-color:#8B04EF"/>
	</linearGradient>
	<path class="st0" d="M100.39,182.79c-26.89,0-53.78,0.05-80.67-0.06c-4.02-0.02-9.76,1.75-9.69-5.35c0.07-6.28,4.86-6.17,9.53-6.16
		c28.73,0.06,57.47-0.2,86.2,0.19c7.08,0.1,9.42-1.59,9.19-9c-0.57-17.66-0.17-35.35-0.17-53.03c0-18.09,1.86-19.91,20.43-19.89
		c9.21,0.01,18.43-0.32,27.62,0.12c5.81,0.28,7.49-1.64,7.37-7.39c-0.35-17.3-0.18-34.62-0.12-51.92
		c0.05-13.31,3.09-16.55,15.98-16.71c13.26-0.16,26.52,0.01,39.78-0.08c9.98-0.07,14.8,4.59,14.97,14.74
		c0.14,8.35-3.53,18.98,1.63,24.42c4.76,5.02,15.35,0.98,23.35,1.54c9.8,0.69,12.9,6.63,12.86,15.66
		c-0.15,30.57,0.19,61.14-0.24,91.7c-0.11,7.48,1.46,10.02,9.48,9.86c26.88-0.54,53.78-0.39,80.67-0.03
		c5.09,0.07,13.86-3.75,14.18,5.33c0.34,9.51-8.61,5.82-13.62,5.84c-51.57,0.25-103.15,0.35-154.72-0.06
		c-8.66-0.07-13.01,1.24-11.67,11.08c1.33,9.75-4.16,22.88,2.32,28.56c5.51,4.83,18.25,1.55,27.79,1.61
		c18.42,0.11,36.84-0.13,55.25,0.14c5.3,0.08,8.63-0.91,11.18-6.28c3.56-7.48,10.44-11.14,18.86-11.19c14-0.09,28-0.31,41.99,0.02
		c13.55,0.32,23.33,10.18,23.35,22.79c0.02,12.82-9.42,22.78-22.72,23.96c-15.45,1.37-15.45,1.37-15.44,16.95
		c0,1.84,0.01,3.68,0,5.52c-0.03,15.89-0.03,15.89,15.81,17.79c13.04,1.57,22.67,11.97,22.37,24.16
		c-0.27,11.04-11.61,22.43-23.55,22.78c-13.62,0.4-27.26,0.22-40.88-0.04c-8.16-0.16-15.62-3.05-19.36-10.6
		c-2.82-5.69-6.47-7.05-12.2-6.61c-5.49,0.42-11.04,0.01-16.57,0.02c-5.44,0.01-10.58-1.24-10.46,7.99
		c0.11,8.61,3.52,9.24,10.43,9.14c14.24-0.2,23.03,4.95,26.4,15.36c3.18,9.82,1.53,18.88-6.73,25.97
		c-9.96,8.56-61.24,8.48-71.2-0.09c-7.38-6.35-10.15-17.98-6.45-27.04c3.64-8.92,14.67-15.22,26.07-15.01
		c4.12,0.08,9.4,3.83,10.85-4.23c1.41-7.82-2.79-10.61-9.1-11.16c-8.4-0.72-16.87-0.77-25.31-0.81c-21-0.1-42,0.2-62.99-0.17
		c-6.68-0.12-8.77,1.7-8.83,8.63c-0.07,7.08,2.38,8.52,8.85,8.62c18.08,0.27,27.62,7.17,29.17,20.09c1.8,15-7.65,26.14-23.59,26.85
		c-12.13,0.54-24.31,0.21-36.46,0.07c-16.67-0.2-26.49-8.63-26.77-22.72c-0.3-14.96,9.09-23.53,26.24-24.63
		c4.46-0.29,11.47,3.7,11.63-6.45c0.12-7.88-1.45-11.74-10.16-10.42c-4.32,0.65-8.83,0.28-13.24,0.05
		c-7.16-0.36-13.15-0.37-16.96,8.14c-2.92,6.51-10.41,8.97-17.85,9.02c-13.26,0.1-26.53,0.35-39.78,0.06
		c-14.73-0.32-25.01-9.93-25.54-23.23c-0.49-12.27,10.98-23.84,25.37-23.63c8.55,0.12,11.21-2.41,9.99-10.44
		c-0.44-2.88-0.04-5.88-0.06-8.83c-0.04-6.26,1.68-13.32-0.65-18.56c-2.65-5.95-10.55-1.44-16.01-3.23
		c-11.33-3.7-18.91-13.36-18.04-24.59c0.94-12.08,9.88-21.04,22.38-21.41c14.35-0.43,28.73-0.35,43.09-0.09
		c9.26,0.17,14.82,6.92,19.91,13.37c2.64,3.34,5.07,4.5,9.15,4.45c25.41-0.29,50.82-0.59,76.23-0.3c7.31,0.08,10.77-1.26,10.05-9.49
		c-0.9-10.17,3.15-23.72-2.02-29.77c-5.42-6.35-19.36-1.73-29.56-1.88c-19.52-0.28-39.05-0.08-58.57-0.08
		C100.39,182.75,100.39,182.77,100.39,182.79z M209.38,108.42l-0.02,0.14c0,2.16,0.01,4.32,0.01,6.49l0.01,0.14
		c0.01,2.85,0.02,5.71,0.04,8.56c-2.02,11.89-0.59,23.86-0.82,35.79c-0.19,9.78,8.16,14.78,17.05,10.32c1.99-1,1.29-3.02-0.47-4.3
		c1.84-0.98,2.38-2.63,2.39-4.58c0.09-43.39,0.1-86.78,0.38-130.16c0.03-5.12-2.63-5.08-6.16-5.06c-10.67,0.05-21.35,0.31-32-0.12
		c-6.18-0.25-7.07,2.22-6.91,7.77c0.46,15.8,0.96,31.67-0.02,47.42c-0.71,11.42,4.65,12.68,12.89,9.64
		c6.33-2.34,8.31,0.98,11.12,5.23C209.57,99.76,207.78,104.34,209.38,108.42z M196.67,235.63c-29.84,0-59.67,0.11-89.51-0.09
		c-6.17-0.04-10.99,0.15-14.11,7.08c-2.82,6.28-9.37,8.93-16.1,10.47c-6.54,1.5-15.67-3.78-19.24,2.8
		c-2.95,5.44-0.77,13.67-0.85,20.66c-0.02,2.21,0.32,4.47-0.04,6.62c-1.39,8.26,1.83,11.19,10.16,10.28
		c10.84-1.18,21.15,1.15,26.76,11.36c2.9,5.27,6.07,6.15,11.25,6.14c60.78-0.12,121.55-0.1,182.33,0.01
		c5.41,0.01,9.48-0.37,12.29-6.38c3.1-6.62,9.8-9.59,16.97-11.05c5.56-1.13,13.51,2.7,16.26-2.44c2.62-4.89,0.71-12.21,0.76-18.46
		c0.03-3.68-0.42-7.42,0.09-11.03c0.98-6.91-1.66-9.19-8.47-8.46c-10.59,1.14-20.31-1.65-25.66-11.28
		c-3.16-5.68-6.84-6.35-12.3-6.32C257.08,235.71,226.87,235.63,196.67,235.63z M196.53,137.13c0-10.98-0.25-20.17,0.1-29.34
		c0.19-5.02-0.95-7.09-6.55-6.99c-18.73,0.34-37.47,0.42-56.2-0.03c-6.72-0.16-7.74,2.5-7.6,8.33c0.37,14.68,0.13,29.38,0.14,44.07
		c0.01,17.71,0.01,17.71,18.2,17.7c5.51,0,11.02,0.07,16.53-0.02c11.32-0.19,26.46,3.88,32.95-1.84
		C201.6,162.42,195.48,146.92,196.53,137.13z M240.73,117.19c0,14.69,0.65,29.41-0.19,44.05c-0.8,13.87,8.86,8.64,15.39,9.73
		c8.03,1.34,11.02-1.48,10.89-9.91c-0.42-27.53-0.78-55.09,0.14-82.6c0.37-11.03-3.12-14.5-13.37-12.75
		c-1.43,0.24-2.98,0.36-4.39,0.1c-6.92-1.23-8.83,1.67-8.6,8.43C241.09,88.54,240.75,102.87,240.73,117.19z M339.67,328.29
		c6.98,0,13.96,0.2,20.93-0.06c6.89-0.26,11.88-5.55,11.99-10.82c0.13-5.91-4.57-11.59-12.15-11.65
		c-13.96-0.11-27.92-0.25-41.86,0.17c-5.86,0.18-10.97,2.87-10.94,9.84c0.03,7.12,3.49,12.04,11.1,12.43
		C325.7,328.55,332.69,328.27,339.67,328.29z M254.17,373.83c0-0.03,0-0.06,0-0.1c7.71,0,15.48,0.56,23.12-0.21
		c4.67-0.47,9.63-2.8,9.14-9c-0.46-5.85-2.73-11.14-9.66-11.29c-14.32-0.31-28.66-0.36-42.98-0.06c-6.45,0.14-10.1,3.94-9.7,10.72
		c0.38,6.34,3.02,10.31,10.23,9.99C240.93,373.6,247.56,373.83,254.17,373.83z M52.83,328.26c0,0.02,0,0.04,0,0.07
		c6.98,0,13.97,0.09,20.95-0.03c7.32-0.12,10.31-4.03,10.21-11.28c-0.1-7.23-3.63-11.09-10.48-11.21
		c-13.96-0.26-27.93,0.32-41.88-0.03c-8.68-0.22-10.85,6.15-10.88,11.84c-0.03,5.69,3.82,10.78,11.14,10.67
		C38.86,328.18,45.84,328.26,52.83,328.26z M138.42,373.83c0,0.02,0,0.04,0,0.05c6.59,0,13.19-0.07,19.78,0.02
		c7.51,0.1,10.76-4.63,11.01-11.02c0.26-6.59-4.14-9.75-10.62-9.79c-13.19-0.07-26.37,0.03-39.56-0.15
		c-7.1-0.09-11.76,3.41-11.78,10.11c-0.01,6.47,4.31,10.69,11.39,10.76C125.23,373.88,131.82,373.83,138.42,373.83z M338.68,240.57
		c0-0.03,0-0.06,0-0.09c7.35,0,14.69,0.14,22.04-0.04c5.92-0.15,10.52-3.4,10.09-9.25c-0.43-5.83-1.99-12.9-10.12-13.1
		c-13.95-0.34-27.92-0.37-41.87,0.03c-6.67,0.19-11.09,4.25-10.97,11.24c0.11,6.79,3.95,10.95,11.01,11.17
		C325.45,240.73,332.07,240.57,338.68,240.57z M53.29,217.95c-6.63,0-13.27,0.33-19.87-0.07c-11.08-0.68-9.12,8.76-10.3,14.31
		c-1.17,5.48,4.26,8.13,9.39,8.22c13.98,0.26,27.97,0.27,41.94,0.02c7-0.12,11.06-4.45,11-11.24c-0.05-6.79-4.31-10.84-11.18-11.16
		C67.29,217.7,60.28,217.95,53.29,217.95z"/>
	<linearGradient id="SVGID_2_" gradientUnits="userSpaceOnUse" x1="209.3625" y1="108.4871" x2="209.3825" y2="108.4871">
		<stop  offset="0" style="stop-color:#FD2708"/>
		<stop  offset="0.4953" style="stop-color:#EC06A3"/>
		<stop  offset="1" style="stop-color:#8B04EF"/>
	</linearGradient>
	<path class="st1" d="M209.38,108.42c0,0-0.02,0.14-0.02,0.14C209.36,108.55,209.38,108.42,209.38,108.42z"/>
	<linearGradient id="SVGID_3_" gradientUnits="userSpaceOnUse" x1="209.3694" y1="115.1107" x2="209.3861" y2="115.1107">
		<stop  offset="0" style="stop-color:#FD2708"/>
		<stop  offset="0.4953" style="stop-color:#EC06A3"/>
		<stop  offset="1" style="stop-color:#8B04EF"/>
	</linearGradient>
	<path class="st2" d="M209.37,115.04c0,0,0.02,0.14,0.02,0.14S209.37,115.04,209.37,115.04z"/>
</g>
</svg>
