<?xml version="1.0" encoding="utf-8"?>
<!-- Generator: Adobe Illustrator 24.1.3, SVG Export Plug-In . SVG Version: 6.00 Build 0)  -->
<svg version="1.1" id="Layer_1" xmlns="http://www.w3.org/2000/svg" xmlns:xlink="http://www.w3.org/1999/xlink" x="0px" y="0px"
	 viewBox="0 0 610 463" style="enable-background:new 0 0 610 463;" xml:space="preserve">
<style type="text/css">
	.st0{opacity:0.11;}
	.st1{fill:url(#SVGID_1_);}
	.st2{fill:url(#SVGID_2_);}
</style>
<g class="st0">
	<linearGradient id="SVGID_1_" gradientUnits="userSpaceOnUse" x1="380.98" y1="229.1987" x2="609.5906" y2="229.1987">
		<stop  offset="0" style="stop-color:#FD2508"/>
		<stop  offset="0.5251" style="stop-color:#E806AF"/>
		<stop  offset="1" style="stop-color:#8704F0"/>
	</linearGradient>
	<path class="st1" d="M380.98,381.69c53.17-1.83,95.69-23.86,126.1-67.65c17.54-25.25,25.76-53.7,26.11-84.91
		c-50.85,0-101.28,0-152.12,0c0-76.31,0-152.2,0-228.54c75.86,0,151.88,0,228.22,0c0.08,1.7,0.22,3.32,0.22,4.94
		c0.01,74.32,0.21,148.64-0.06,222.96c-0.2,54.8-17.69,103.8-52.56,146c-32.86,39.76-74.78,65.84-125.25,77.15
		c-14.86,3.33-30.29,4.15-45.46,6.07c-1.61,0.2-3.26,0.03-5.19,0.03C380.98,432.24,380.98,407.18,380.98,381.69z"/>
	<linearGradient id="SVGID_2_" gradientUnits="userSpaceOnUse" x1="-0.14" y1="229.135" x2="228.5907" y2="229.135">
		<stop  offset="0" style="stop-color:#FD2508"/>
		<stop  offset="0.5251" style="stop-color:#E806AF"/>
		<stop  offset="1" style="stop-color:#8704F0"/>
	</linearGradient>
	<path class="st2" d="M151.83,229.11c-50.93,0-101.21,0-151.92,0c0-76.31,0-152.32,0-228.64c75.91,0,151.8,0,227.99,0
		c0.15,1.01,0.41,1.95,0.41,2.88c-0.02,77.31,0.87,154.63-0.42,231.92c-0.93,55.58-21.18,104.51-58.37,146.17
		c-27.48,30.79-61,52.39-100.08,65.2c-22.39,7.34-45.55,10.94-69.58,11.16c0-25.39,0-50.46,0-76.12
		c53.04-1.78,95.68-23.91,126.09-67.84C143.37,288.72,151.68,260.39,151.83,229.11z"/>
</g>
</svg>
