<?xml version="1.0" encoding="utf-8"?>
<!-- Generator: Adobe Illustrator 24.1.3, SVG Export Plug-In . SVG Version: 6.00 Build 0)  -->
<svg version="1.1" id="Layer_1" xmlns="http://www.w3.org/2000/svg" xmlns:xlink="http://www.w3.org/1999/xlink" x="0px" y="0px"
	 viewBox="0 0 610 463" style="enable-background:new 0 0 610 463;" xml:space="preserve">
<style type="text/css">
	.st0{opacity:0.11;}
	.st1{fill:url(#SVGID_1_);}
	.st2{fill:url(#SVGID_2_);}
</style>
<g class="st0">
	<linearGradient id="SVGID_1_" gradientUnits="userSpaceOnUse" x1="-0.1269" y1="229.2071" x2="228.4776" y2="229.2071">
		<stop  offset="0" style="stop-color:#FD2508"/>
		<stop  offset="0.5251" style="stop-color:#E806AF"/>
		<stop  offset="1" style="stop-color:#8704F0"/>
	</linearGradient>
	<path class="st1" d="M228.48,381.69c-53.17-1.83-95.69-23.86-126.1-67.65c-17.54-25.25-25.76-53.7-26.11-84.91
		c50.85,0,101.28,0,152.12,0c0-76.31,0-152.2,0-228.54c-75.86,0-151.88,0-228.22,0C0.09,2.3-0.05,3.92-0.05,5.54
		C-0.06,79.86-0.26,154.18,0.01,228.5c0.2,54.8,17.69,103.8,52.56,146c32.86,39.76,74.78,65.84,125.25,77.15
		c14.86,3.33,30.29,4.15,45.46,6.07c1.61,0.2,3.26,0.03,5.19,0.03C228.48,432.24,228.48,407.18,228.48,381.69z"/>
	<linearGradient id="SVGID_2_" gradientUnits="userSpaceOnUse" x1="380.8643" y1="229.1406" x2="609.5828" y2="229.1406">
		<stop  offset="0" style="stop-color:#FD2508"/>
		<stop  offset="0.5251" style="stop-color:#E806AF"/>
		<stop  offset="1" style="stop-color:#8704F0"/>
	</linearGradient>
	<path class="st2" d="M457.63,229.11c50.93,0,101.21,0,151.92,0c0-76.31,0-152.32,0-228.64c-75.91,0-151.8,0-227.99,0
		c-0.15,1.01-0.41,1.95-0.41,2.88c0.02,77.31-0.87,154.63,0.42,231.92c0.93,55.58,21.18,104.51,58.37,146.17
		c27.48,30.79,61,52.39,100.08,65.2c22.39,7.34,45.55,10.94,69.58,11.16c0-25.39,0-50.46,0-76.12
		c-53.04-1.78-95.68-23.91-126.09-67.84C466.09,288.72,457.77,260.39,457.63,229.11z"/>
</g>
</svg>
