<?xml version="1.0" encoding="utf-8"?>
<!-- Generator: Adobe Illustrator 24.1.3, SVG Export Plug-In . SVG Version: 6.00 Build 0)  -->
<svg version="1.1" id="Layer_1" xmlns="http://www.w3.org/2000/svg" xmlns:xlink="http://www.w3.org/1999/xlink" x="0px" y="0px"
	 viewBox="0 0 230 231" style="enable-background:new 0 0 230 231;" xml:space="preserve">
<style type="text/css">
	.st0{fill:url(#SVGID_1_);}
	.st1{fill:#FEFCFC;}
</style>
<g>
	<linearGradient id="SVGID_1_" gradientUnits="userSpaceOnUse" x1="2.0847" y1="115.5547" x2="226.7602" y2="115.5547">
		<stop  offset="0" style="stop-color:#FD2708"/>
		<stop  offset="0.4767" style="stop-color:#D907E1"/>
		<stop  offset="1" style="stop-color:#8B04EF"/>
	</linearGradient>
	<path class="st0" d="M2.08,125.99c0-6.66,0-13.32,0-19.99c1.58-0.55,0.9-1.95,1.05-2.97C13.06,33.79,78-9.39,145.06,9.01
		c50.77,13.93,89.18,61.5,80.46,123.1c-8.07,57.05-59.85,100.86-125.6,93.4c-45.25-5.13-82.87-39.14-94.09-83.39
		C4.48,136.77,4.6,131.07,2.08,125.99z M83.36,57.56c0,40.05,0,79.03,0,118.81c32.44-19.94,64.2-39.45,96.75-59.46
		C147.51,96.91,115.74,77.42,83.36,57.56z"/>
	<path class="st1" d="M83.36,57.56c32.38,19.86,64.15,39.35,96.75,59.35c-32.56,20.01-64.31,39.52-96.75,59.46
		C83.36,136.59,83.36,97.61,83.36,57.56z"/>
</g>
</svg>
